<?xml version="1.0" encoding="UTF-8"?>
<svg xmlns="http://www.w3.org/2000/svg" xmlns:xlink="http://www.w3.org/1999/xlink" width="504pt" height="504pt" viewBox="0 0 504 504" version="1.1">
<g id="surface295">
<rect x="0" y="0" width="504" height="504" style="fill:rgb(100%,100%,100%);fill-opacity:1;stroke:none;"/>
<path style="fill-rule:nonzero;fill:rgb(0%,0%,0%);fill-opacity:1;stroke-width:0.75;stroke-linecap:round;stroke-linejoin:round;stroke:rgb(0%,0%,0%);stroke-opacity:1;stroke-miterlimit:10;" d="M 74.398438 94.300781 L 98.398438 94.300781 L 98.398438 72.800781 L 74.398438 72.800781 Z M 74.398438 94.300781 "/>
<path style="fill-rule:nonzero;fill:rgb(0%,0%,0%);fill-opacity:1;stroke-width:0.75;stroke-linecap:round;stroke-linejoin:round;stroke:rgb(0%,0%,0%);stroke-opacity:1;stroke-miterlimit:10;" d="M 98.398438 94.300781 L 122.398438 94.300781 L 122.398438 72.800781 L 98.398438 72.800781 Z M 98.398438 94.300781 "/>
<path style="fill-rule:nonzero;fill:rgb(0%,0%,0%);fill-opacity:1;stroke-width:0.75;stroke-linecap:round;stroke-linejoin:round;stroke:rgb(0%,0%,0%);stroke-opacity:1;stroke-miterlimit:10;" d="M 122.398438 94.300781 L 146.398438 94.300781 L 146.398438 72.800781 L 122.398438 72.800781 Z M 122.398438 94.300781 "/>
<path style="fill-rule:nonzero;fill:rgb(0%,0%,0%);fill-opacity:1;stroke-width:0.75;stroke-linecap:round;stroke-linejoin:round;stroke:rgb(0%,0%,0%);stroke-opacity:1;stroke-miterlimit:10;" d="M 146.398438 94.300781 L 170.398438 94.300781 L 170.398438 72.800781 L 146.398438 72.800781 Z M 146.398438 94.300781 "/>
<path style="fill-rule:nonzero;fill:rgb(0%,0%,0%);fill-opacity:1;stroke-width:0.75;stroke-linecap:round;stroke-linejoin:round;stroke:rgb(0%,0%,0%);stroke-opacity:1;stroke-miterlimit:10;" d="M 170.398438 94.300781 L 194.398438 94.300781 L 194.398438 72.800781 L 170.398438 72.800781 Z M 170.398438 94.300781 "/>
<path style="fill-rule:nonzero;fill:rgb(0%,0%,0%);fill-opacity:1;stroke-width:0.75;stroke-linecap:round;stroke-linejoin:round;stroke:rgb(0%,0%,0%);stroke-opacity:1;stroke-miterlimit:10;" d="M 194.398438 94.300781 L 218.398438 94.300781 L 218.398438 72.800781 L 194.398438 72.800781 Z M 194.398438 94.300781 "/>
<path style="fill-rule:nonzero;fill:rgb(0%,0%,0%);fill-opacity:1;stroke-width:0.75;stroke-linecap:round;stroke-linejoin:round;stroke:rgb(0%,0%,0%);stroke-opacity:1;stroke-miterlimit:10;" d="M 218.398438 94.300781 L 242.398438 94.300781 L 242.398438 72.800781 L 218.398438 72.800781 Z M 218.398438 94.300781 "/>
<path style="fill-rule:nonzero;fill:rgb(0%,0%,0%);fill-opacity:1;stroke-width:0.75;stroke-linecap:round;stroke-linejoin:round;stroke:rgb(0%,0%,0%);stroke-opacity:1;stroke-miterlimit:10;" d="M 242.398438 94.300781 L 266.398438 94.300781 L 266.398438 72.800781 L 242.398438 72.800781 Z M 242.398438 94.300781 "/>
<path style="fill-rule:nonzero;fill:rgb(0%,0%,0%);fill-opacity:1;stroke-width:0.75;stroke-linecap:round;stroke-linejoin:round;stroke:rgb(0%,0%,0%);stroke-opacity:1;stroke-miterlimit:10;" d="M 266.398438 94.300781 L 290.398438 94.300781 L 290.398438 72.800781 L 266.398438 72.800781 Z M 266.398438 94.300781 "/>
<path style="fill-rule:nonzero;fill:rgb(0%,0%,0%);fill-opacity:1;stroke-width:0.75;stroke-linecap:round;stroke-linejoin:round;stroke:rgb(0%,0%,0%);stroke-opacity:1;stroke-miterlimit:10;" d="M 290.398438 94.300781 L 314.398438 94.300781 L 314.398438 72.800781 L 290.398438 72.800781 Z M 290.398438 94.300781 "/>
<path style="fill-rule:nonzero;fill:rgb(0%,0%,0%);fill-opacity:1;stroke-width:0.75;stroke-linecap:round;stroke-linejoin:round;stroke:rgb(0%,0%,0%);stroke-opacity:1;stroke-miterlimit:10;" d="M 314.398438 94.300781 L 338.398438 94.300781 L 338.398438 72.800781 L 314.398438 72.800781 Z M 314.398438 94.300781 "/>
<path style="fill-rule:nonzero;fill:rgb(0%,0%,0%);fill-opacity:1;stroke-width:0.75;stroke-linecap:round;stroke-linejoin:round;stroke:rgb(0%,0%,0%);stroke-opacity:1;stroke-miterlimit:10;" d="M 338.398438 94.300781 L 362.398438 94.300781 L 362.398438 72.800781 L 338.398438 72.800781 Z M 338.398438 94.300781 "/>
<path style="fill-rule:nonzero;fill:rgb(0%,0%,0%);fill-opacity:1;stroke-width:0.75;stroke-linecap:round;stroke-linejoin:round;stroke:rgb(0%,0%,0%);stroke-opacity:1;stroke-miterlimit:10;" d="M 362.398438 94.300781 L 386.398438 94.300781 L 386.398438 72.800781 L 362.398438 72.800781 Z M 362.398438 94.300781 "/>
<path style="fill-rule:nonzero;fill:rgb(0%,0%,0%);fill-opacity:1;stroke-width:0.75;stroke-linecap:round;stroke-linejoin:round;stroke:rgb(0%,0%,0%);stroke-opacity:1;stroke-miterlimit:10;" d="M 386.398438 94.300781 L 410.398438 94.300781 L 410.398438 72.800781 L 386.398438 72.800781 Z M 386.398438 94.300781 "/>
<path style="fill-rule:nonzero;fill:rgb(0%,0%,0%);fill-opacity:1;stroke-width:0.75;stroke-linecap:round;stroke-linejoin:round;stroke:rgb(0%,0%,0%);stroke-opacity:1;stroke-miterlimit:10;" d="M 410.398438 94.300781 L 434.398438 94.300781 L 434.398438 72.800781 L 410.398438 72.800781 Z M 410.398438 94.300781 "/>
<path style="fill-rule:nonzero;fill:rgb(0%,0%,0%);fill-opacity:1;stroke-width:0.75;stroke-linecap:round;stroke-linejoin:round;stroke:rgb(0%,0%,0%);stroke-opacity:1;stroke-miterlimit:10;" d="M 434.398438 94.300781 L 458.398438 94.300781 L 458.398438 72.800781 L 434.398438 72.800781 Z M 434.398438 94.300781 "/>
<path style="fill-rule:nonzero;fill:rgb(0%,0%,0%);fill-opacity:1;stroke-width:0.75;stroke-linecap:round;stroke-linejoin:round;stroke:rgb(0%,0%,0%);stroke-opacity:1;stroke-miterlimit:10;" d="M 74.398438 115.800781 L 98.398438 115.800781 L 98.398438 94.300781 L 74.398438 94.300781 Z M 74.398438 115.800781 "/>
<path style="fill-rule:nonzero;fill:rgb(0%,0%,0%);fill-opacity:1;stroke-width:0.75;stroke-linecap:round;stroke-linejoin:round;stroke:rgb(0%,0%,0%);stroke-opacity:1;stroke-miterlimit:10;" d="M 98.398438 115.800781 L 122.398438 115.800781 L 122.398438 94.300781 L 98.398438 94.300781 Z M 98.398438 115.800781 "/>
<path style="fill-rule:nonzero;fill:rgb(0%,0%,0%);fill-opacity:1;stroke-width:0.75;stroke-linecap:round;stroke-linejoin:round;stroke:rgb(0%,0%,0%);stroke-opacity:1;stroke-miterlimit:10;" d="M 146.398438 115.800781 L 170.398438 115.800781 L 170.398438 94.300781 L 146.398438 94.300781 Z M 146.398438 115.800781 "/>
<path style="fill-rule:nonzero;fill:rgb(0%,0%,0%);fill-opacity:1;stroke-width:0.75;stroke-linecap:round;stroke-linejoin:round;stroke:rgb(0%,0%,0%);stroke-opacity:1;stroke-miterlimit:10;" d="M 314.398438 115.800781 L 338.398438 115.800781 L 338.398438 94.300781 L 314.398438 94.300781 Z M 314.398438 115.800781 "/>
<path style="fill-rule:nonzero;fill:rgb(0%,0%,0%);fill-opacity:1;stroke-width:0.75;stroke-linecap:round;stroke-linejoin:round;stroke:rgb(0%,0%,0%);stroke-opacity:1;stroke-miterlimit:10;" d="M 338.398438 115.800781 L 362.398438 115.800781 L 362.398438 94.300781 L 338.398438 94.300781 Z M 338.398438 115.800781 "/>
<path style="fill-rule:nonzero;fill:rgb(0%,0%,0%);fill-opacity:1;stroke-width:0.75;stroke-linecap:round;stroke-linejoin:round;stroke:rgb(0%,0%,0%);stroke-opacity:1;stroke-miterlimit:10;" d="M 386.398438 115.800781 L 410.398438 115.800781 L 410.398438 94.300781 L 386.398438 94.300781 Z M 386.398438 115.800781 "/>
<path style="fill-rule:nonzero;fill:rgb(0%,0%,0%);fill-opacity:1;stroke-width:0.75;stroke-linecap:round;stroke-linejoin:round;stroke:rgb(0%,0%,0%);stroke-opacity:1;stroke-miterlimit:10;" d="M 434.398438 115.800781 L 458.398438 115.800781 L 458.398438 94.300781 L 434.398438 94.300781 Z M 434.398438 115.800781 "/>
<path style="fill-rule:nonzero;fill:rgb(0%,0%,0%);fill-opacity:1;stroke-width:0.75;stroke-linecap:round;stroke-linejoin:round;stroke:rgb(0%,0%,0%);stroke-opacity:1;stroke-miterlimit:10;" d="M 74.398438 137.300781 L 98.398438 137.300781 L 98.398438 115.800781 L 74.398438 115.800781 Z M 74.398438 137.300781 "/>
<path style="fill-rule:nonzero;fill:rgb(0%,0%,0%);fill-opacity:1;stroke-width:0.75;stroke-linecap:round;stroke-linejoin:round;stroke:rgb(0%,0%,0%);stroke-opacity:1;stroke-miterlimit:10;" d="M 122.398438 137.300781 L 146.398438 137.300781 L 146.398438 115.800781 L 122.398438 115.800781 Z M 122.398438 137.300781 "/>
<path style="fill-rule:nonzero;fill:rgb(0%,0%,0%);fill-opacity:1;stroke-width:0.75;stroke-linecap:round;stroke-linejoin:round;stroke:rgb(0%,0%,0%);stroke-opacity:1;stroke-miterlimit:10;" d="M 194.398438 137.300781 L 218.398438 137.300781 L 218.398438 115.800781 L 194.398438 115.800781 Z M 194.398438 137.300781 "/>
<path style="fill-rule:nonzero;fill:rgb(0%,0%,0%);fill-opacity:1;stroke-width:0.75;stroke-linecap:round;stroke-linejoin:round;stroke:rgb(0%,0%,0%);stroke-opacity:1;stroke-miterlimit:10;" d="M 218.398438 137.300781 L 242.398438 137.300781 L 242.398438 115.800781 L 218.398438 115.800781 Z M 218.398438 137.300781 "/>
<path style="fill-rule:nonzero;fill:rgb(0%,0%,0%);fill-opacity:1;stroke-width:0.75;stroke-linecap:round;stroke-linejoin:round;stroke:rgb(0%,0%,0%);stroke-opacity:1;stroke-miterlimit:10;" d="M 266.398438 137.300781 L 290.398438 137.300781 L 290.398438 115.800781 L 266.398438 115.800781 Z M 266.398438 137.300781 "/>
<path style="fill-rule:nonzero;fill:rgb(0%,0%,0%);fill-opacity:1;stroke-width:0.75;stroke-linecap:round;stroke-linejoin:round;stroke:rgb(0%,0%,0%);stroke-opacity:1;stroke-miterlimit:10;" d="M 290.398438 137.300781 L 314.398438 137.300781 L 314.398438 115.800781 L 290.398438 115.800781 Z M 290.398438 137.300781 "/>
<path style="fill-rule:nonzero;fill:rgb(0%,0%,0%);fill-opacity:1;stroke-width:0.75;stroke-linecap:round;stroke-linejoin:round;stroke:rgb(0%,0%,0%);stroke-opacity:1;stroke-miterlimit:10;" d="M 434.398438 137.300781 L 458.398438 137.300781 L 458.398438 115.800781 L 434.398438 115.800781 Z M 434.398438 137.300781 "/>
<path style="fill-rule:nonzero;fill:rgb(0%,0%,0%);fill-opacity:1;stroke-width:0.75;stroke-linecap:round;stroke-linejoin:round;stroke:rgb(0%,0%,0%);stroke-opacity:1;stroke-miterlimit:10;" d="M 74.398438 158.800781 L 98.398438 158.800781 L 98.398438 137.300781 L 74.398438 137.300781 Z M 74.398438 158.800781 "/>
<path style="fill-rule:nonzero;fill:rgb(0%,0%,0%);fill-opacity:1;stroke-width:0.75;stroke-linecap:round;stroke-linejoin:round;stroke:rgb(0%,0%,0%);stroke-opacity:1;stroke-miterlimit:10;" d="M 170.398438 158.800781 L 194.398438 158.800781 L 194.398438 137.300781 L 170.398438 137.300781 Z M 170.398438 158.800781 "/>
<path style="fill-rule:nonzero;fill:rgb(0%,0%,0%);fill-opacity:1;stroke-width:0.75;stroke-linecap:round;stroke-linejoin:round;stroke:rgb(0%,0%,0%);stroke-opacity:1;stroke-miterlimit:10;" d="M 362.398438 158.800781 L 386.398438 158.800781 L 386.398438 137.300781 L 362.398438 137.300781 Z M 362.398438 158.800781 "/>
<path style="fill-rule:nonzero;fill:rgb(0%,0%,0%);fill-opacity:1;stroke-width:0.75;stroke-linecap:round;stroke-linejoin:round;stroke:rgb(0%,0%,0%);stroke-opacity:1;stroke-miterlimit:10;" d="M 386.398438 158.800781 L 410.398438 158.800781 L 410.398438 137.300781 L 386.398438 137.300781 Z M 386.398438 158.800781 "/>
<path style="fill-rule:nonzero;fill:rgb(0%,0%,0%);fill-opacity:1;stroke-width:0.75;stroke-linecap:round;stroke-linejoin:round;stroke:rgb(0%,0%,0%);stroke-opacity:1;stroke-miterlimit:10;" d="M 434.398438 158.800781 L 458.398438 158.800781 L 458.398438 137.300781 L 434.398438 137.300781 Z M 434.398438 158.800781 "/>
<path style="fill-rule:nonzero;fill:rgb(0%,0%,0%);fill-opacity:1;stroke-width:0.75;stroke-linecap:round;stroke-linejoin:round;stroke:rgb(0%,0%,0%);stroke-opacity:1;stroke-miterlimit:10;" d="M 74.398438 180.300781 L 98.398438 180.300781 L 98.398438 158.800781 L 74.398438 158.800781 Z M 74.398438 180.300781 "/>
<path style="fill-rule:nonzero;fill:rgb(0%,0%,0%);fill-opacity:1;stroke-width:0.75;stroke-linecap:round;stroke-linejoin:round;stroke:rgb(0%,0%,0%);stroke-opacity:1;stroke-miterlimit:10;" d="M 122.398438 180.300781 L 146.398438 180.300781 L 146.398438 158.800781 L 122.398438 158.800781 Z M 122.398438 180.300781 "/>
<path style="fill-rule:nonzero;fill:rgb(0%,0%,0%);fill-opacity:1;stroke-width:0.75;stroke-linecap:round;stroke-linejoin:round;stroke:rgb(0%,0%,0%);stroke-opacity:1;stroke-miterlimit:10;" d="M 146.398438 180.300781 L 170.398438 180.300781 L 170.398438 158.800781 L 146.398438 158.800781 Z M 146.398438 180.300781 "/>
<path style="fill-rule:nonzero;fill:rgb(0%,0%,0%);fill-opacity:1;stroke-width:0.75;stroke-linecap:round;stroke-linejoin:round;stroke:rgb(0%,0%,0%);stroke-opacity:1;stroke-miterlimit:10;" d="M 194.398438 180.300781 L 218.398438 180.300781 L 218.398438 158.800781 L 194.398438 158.800781 Z M 194.398438 180.300781 "/>
<path style="fill-rule:nonzero;fill:rgb(0%,0%,0%);fill-opacity:1;stroke-width:0.75;stroke-linecap:round;stroke-linejoin:round;stroke:rgb(0%,0%,0%);stroke-opacity:1;stroke-miterlimit:10;" d="M 218.398438 180.300781 L 242.398438 180.300781 L 242.398438 158.800781 L 218.398438 158.800781 Z M 218.398438 180.300781 "/>
<path style="fill-rule:nonzero;fill:rgb(0%,0%,0%);fill-opacity:1;stroke-width:0.75;stroke-linecap:round;stroke-linejoin:round;stroke:rgb(0%,0%,0%);stroke-opacity:1;stroke-miterlimit:10;" d="M 338.398438 180.300781 L 362.398438 180.300781 L 362.398438 158.800781 L 338.398438 158.800781 Z M 338.398438 180.300781 "/>
<path style="fill-rule:nonzero;fill:rgb(0%,0%,0%);fill-opacity:1;stroke-width:0.75;stroke-linecap:round;stroke-linejoin:round;stroke:rgb(0%,0%,0%);stroke-opacity:1;stroke-miterlimit:10;" d="M 434.398438 180.300781 L 458.398438 180.300781 L 458.398438 158.800781 L 434.398438 158.800781 Z M 434.398438 180.300781 "/>
<path style="fill-rule:nonzero;fill:rgb(0%,0%,0%);fill-opacity:1;stroke-width:0.75;stroke-linecap:round;stroke-linejoin:round;stroke:rgb(0%,0%,0%);stroke-opacity:1;stroke-miterlimit:10;" d="M 74.398438 201.800781 L 98.398438 201.800781 L 98.398438 180.300781 L 74.398438 180.300781 Z M 74.398438 201.800781 "/>
<path style="fill-rule:nonzero;fill:rgb(0%,0%,0%);fill-opacity:1;stroke-width:0.75;stroke-linecap:round;stroke-linejoin:round;stroke:rgb(0%,0%,0%);stroke-opacity:1;stroke-miterlimit:10;" d="M 146.398438 201.800781 L 170.398438 201.800781 L 170.398438 180.300781 L 146.398438 180.300781 Z M 146.398438 201.800781 "/>
<path style="fill-rule:nonzero;fill:rgb(0%,0%,0%);fill-opacity:1;stroke-width:0.75;stroke-linecap:round;stroke-linejoin:round;stroke:rgb(0%,0%,0%);stroke-opacity:1;stroke-miterlimit:10;" d="M 194.398438 201.800781 L 218.398438 201.800781 L 218.398438 180.300781 L 194.398438 180.300781 Z M 194.398438 201.800781 "/>
<path style="fill-rule:nonzero;fill:rgb(0%,0%,0%);fill-opacity:1;stroke-width:0.75;stroke-linecap:round;stroke-linejoin:round;stroke:rgb(0%,0%,0%);stroke-opacity:1;stroke-miterlimit:10;" d="M 266.398438 201.800781 L 290.398438 201.800781 L 290.398438 180.300781 L 266.398438 180.300781 Z M 266.398438 201.800781 "/>
<path style="fill-rule:nonzero;fill:rgb(0%,0%,0%);fill-opacity:1;stroke-width:0.75;stroke-linecap:round;stroke-linejoin:round;stroke:rgb(0%,0%,0%);stroke-opacity:1;stroke-miterlimit:10;" d="M 314.398438 201.800781 L 338.398438 201.800781 L 338.398438 180.300781 L 314.398438 180.300781 Z M 314.398438 201.800781 "/>
<path style=" stroke:none;fill-rule:nonzero;fill:rgb(0%,100%,0%);fill-opacity:1;" d="M 343.199219 197.5 L 357.597656 197.5 L 357.597656 184.601562 L 343.199219 184.601562 Z M 343.199219 197.5 "/>
<path style="fill-rule:nonzero;fill:rgb(0%,0%,0%);fill-opacity:1;stroke-width:0.75;stroke-linecap:round;stroke-linejoin:round;stroke:rgb(0%,0%,0%);stroke-opacity:1;stroke-miterlimit:10;" d="M 386.398438 201.800781 L 410.398438 201.800781 L 410.398438 180.300781 L 386.398438 180.300781 Z M 386.398438 201.800781 "/>
<path style="fill-rule:nonzero;fill:rgb(0%,0%,0%);fill-opacity:1;stroke-width:0.75;stroke-linecap:round;stroke-linejoin:round;stroke:rgb(0%,0%,0%);stroke-opacity:1;stroke-miterlimit:10;" d="M 410.398438 201.800781 L 434.398438 201.800781 L 434.398438 180.300781 L 410.398438 180.300781 Z M 410.398438 201.800781 "/>
<path style="fill-rule:nonzero;fill:rgb(0%,0%,0%);fill-opacity:1;stroke-width:0.75;stroke-linecap:round;stroke-linejoin:round;stroke:rgb(0%,0%,0%);stroke-opacity:1;stroke-miterlimit:10;" d="M 434.398438 201.800781 L 458.398438 201.800781 L 458.398438 180.300781 L 434.398438 180.300781 Z M 434.398438 201.800781 "/>
<path style="fill-rule:nonzero;fill:rgb(0%,0%,0%);fill-opacity:1;stroke-width:0.75;stroke-linecap:round;stroke-linejoin:round;stroke:rgb(0%,0%,0%);stroke-opacity:1;stroke-miterlimit:10;" d="M 74.398438 223.300781 L 98.398438 223.300781 L 98.398438 201.800781 L 74.398438 201.800781 Z M 74.398438 223.300781 "/>
<path style="fill-rule:nonzero;fill:rgb(0%,0%,0%);fill-opacity:1;stroke-width:0.75;stroke-linecap:round;stroke-linejoin:round;stroke:rgb(0%,0%,0%);stroke-opacity:1;stroke-miterlimit:10;" d="M 98.398438 223.300781 L 122.398438 223.300781 L 122.398438 201.800781 L 98.398438 201.800781 Z M 98.398438 223.300781 "/>
<path style="fill-rule:nonzero;fill:rgb(0%,0%,0%);fill-opacity:1;stroke-width:0.75;stroke-linecap:round;stroke-linejoin:round;stroke:rgb(0%,0%,0%);stroke-opacity:1;stroke-miterlimit:10;" d="M 218.398438 223.300781 L 242.398438 223.300781 L 242.398438 201.800781 L 218.398438 201.800781 Z M 218.398438 223.300781 "/>
<path style="fill-rule:nonzero;fill:rgb(0%,0%,0%);fill-opacity:1;stroke-width:0.75;stroke-linecap:round;stroke-linejoin:round;stroke:rgb(0%,0%,0%);stroke-opacity:1;stroke-miterlimit:10;" d="M 242.398438 223.300781 L 266.398438 223.300781 L 266.398438 201.800781 L 242.398438 201.800781 Z M 242.398438 223.300781 "/>
<path style="fill-rule:nonzero;fill:rgb(0%,0%,0%);fill-opacity:1;stroke-width:0.75;stroke-linecap:round;stroke-linejoin:round;stroke:rgb(0%,0%,0%);stroke-opacity:1;stroke-miterlimit:10;" d="M 266.398438 223.300781 L 290.398438 223.300781 L 290.398438 201.800781 L 266.398438 201.800781 Z M 266.398438 223.300781 "/>
<path style="fill-rule:nonzero;fill:rgb(0%,0%,0%);fill-opacity:1;stroke-width:0.75;stroke-linecap:round;stroke-linejoin:round;stroke:rgb(0%,0%,0%);stroke-opacity:1;stroke-miterlimit:10;" d="M 290.398438 223.300781 L 314.398438 223.300781 L 314.398438 201.800781 L 290.398438 201.800781 Z M 290.398438 223.300781 "/>
<path style="fill-rule:nonzero;fill:rgb(0%,0%,0%);fill-opacity:1;stroke-width:0.75;stroke-linecap:round;stroke-linejoin:round;stroke:rgb(0%,0%,0%);stroke-opacity:1;stroke-miterlimit:10;" d="M 338.398438 223.300781 L 362.398438 223.300781 L 362.398438 201.800781 L 338.398438 201.800781 Z M 338.398438 223.300781 "/>
<path style="fill-rule:nonzero;fill:rgb(0%,0%,0%);fill-opacity:1;stroke-width:0.75;stroke-linecap:round;stroke-linejoin:round;stroke:rgb(0%,0%,0%);stroke-opacity:1;stroke-miterlimit:10;" d="M 434.398438 223.300781 L 458.398438 223.300781 L 458.398438 201.800781 L 434.398438 201.800781 Z M 434.398438 223.300781 "/>
<path style="fill-rule:nonzero;fill:rgb(0%,0%,0%);fill-opacity:1;stroke-width:0.75;stroke-linecap:round;stroke-linejoin:round;stroke:rgb(0%,0%,0%);stroke-opacity:1;stroke-miterlimit:10;" d="M 74.398438 244.800781 L 98.398438 244.800781 L 98.398438 223.300781 L 74.398438 223.300781 Z M 74.398438 244.800781 "/>
<path style="fill-rule:nonzero;fill:rgb(0%,0%,0%);fill-opacity:1;stroke-width:0.75;stroke-linecap:round;stroke-linejoin:round;stroke:rgb(0%,0%,0%);stroke-opacity:1;stroke-miterlimit:10;" d="M 98.398438 244.800781 L 122.398438 244.800781 L 122.398438 223.300781 L 98.398438 223.300781 Z M 98.398438 244.800781 "/>
<path style="fill-rule:nonzero;fill:rgb(0%,0%,0%);fill-opacity:1;stroke-width:0.75;stroke-linecap:round;stroke-linejoin:round;stroke:rgb(0%,0%,0%);stroke-opacity:1;stroke-miterlimit:10;" d="M 242.398438 244.800781 L 266.398438 244.800781 L 266.398438 223.300781 L 242.398438 223.300781 Z M 242.398438 244.800781 "/>
<path style="fill-rule:nonzero;fill:rgb(0%,0%,0%);fill-opacity:1;stroke-width:0.75;stroke-linecap:round;stroke-linejoin:round;stroke:rgb(0%,0%,0%);stroke-opacity:1;stroke-miterlimit:10;" d="M 290.398438 244.800781 L 314.398438 244.800781 L 314.398438 223.300781 L 290.398438 223.300781 Z M 290.398438 244.800781 "/>
<path style="fill-rule:nonzero;fill:rgb(0%,0%,0%);fill-opacity:1;stroke-width:0.75;stroke-linecap:round;stroke-linejoin:round;stroke:rgb(0%,0%,0%);stroke-opacity:1;stroke-miterlimit:10;" d="M 362.398438 244.800781 L 386.398438 244.800781 L 386.398438 223.300781 L 362.398438 223.300781 Z M 362.398438 244.800781 "/>
<path style="fill-rule:nonzero;fill:rgb(0%,0%,0%);fill-opacity:1;stroke-width:0.75;stroke-linecap:round;stroke-linejoin:round;stroke:rgb(0%,0%,0%);stroke-opacity:1;stroke-miterlimit:10;" d="M 386.398438 244.800781 L 410.398438 244.800781 L 410.398438 223.300781 L 386.398438 223.300781 Z M 386.398438 244.800781 "/>
<path style="fill-rule:nonzero;fill:rgb(0%,0%,0%);fill-opacity:1;stroke-width:0.75;stroke-linecap:round;stroke-linejoin:round;stroke:rgb(0%,0%,0%);stroke-opacity:1;stroke-miterlimit:10;" d="M 434.398438 244.800781 L 458.398438 244.800781 L 458.398438 223.300781 L 434.398438 223.300781 Z M 434.398438 244.800781 "/>
<path style="fill-rule:nonzero;fill:rgb(0%,0%,0%);fill-opacity:1;stroke-width:0.75;stroke-linecap:round;stroke-linejoin:round;stroke:rgb(0%,0%,0%);stroke-opacity:1;stroke-miterlimit:10;" d="M 74.398438 266.300781 L 98.398438 266.300781 L 98.398438 244.800781 L 74.398438 244.800781 Z M 74.398438 266.300781 "/>
<path style="fill-rule:nonzero;fill:rgb(0%,0%,0%);fill-opacity:1;stroke-width:0.75;stroke-linecap:round;stroke-linejoin:round;stroke:rgb(0%,0%,0%);stroke-opacity:1;stroke-miterlimit:10;" d="M 146.398438 266.300781 L 170.398438 266.300781 L 170.398438 244.800781 L 146.398438 244.800781 Z M 146.398438 266.300781 "/>
<path style="fill-rule:nonzero;fill:rgb(0%,0%,0%);fill-opacity:1;stroke-width:0.75;stroke-linecap:round;stroke-linejoin:round;stroke:rgb(0%,0%,0%);stroke-opacity:1;stroke-miterlimit:10;" d="M 290.398438 266.300781 L 314.398438 266.300781 L 314.398438 244.800781 L 290.398438 244.800781 Z M 290.398438 266.300781 "/>
<path style="fill-rule:nonzero;fill:rgb(0%,0%,0%);fill-opacity:1;stroke-width:0.75;stroke-linecap:round;stroke-linejoin:round;stroke:rgb(0%,0%,0%);stroke-opacity:1;stroke-miterlimit:10;" d="M 362.398438 266.300781 L 386.398438 266.300781 L 386.398438 244.800781 L 362.398438 244.800781 Z M 362.398438 266.300781 "/>
<path style="fill-rule:nonzero;fill:rgb(0%,0%,0%);fill-opacity:1;stroke-width:0.75;stroke-linecap:round;stroke-linejoin:round;stroke:rgb(0%,0%,0%);stroke-opacity:1;stroke-miterlimit:10;" d="M 386.398438 266.300781 L 410.398438 266.300781 L 410.398438 244.800781 L 386.398438 244.800781 Z M 386.398438 266.300781 "/>
<path style="fill-rule:nonzero;fill:rgb(0%,0%,0%);fill-opacity:1;stroke-width:0.75;stroke-linecap:round;stroke-linejoin:round;stroke:rgb(0%,0%,0%);stroke-opacity:1;stroke-miterlimit:10;" d="M 434.398438 266.300781 L 458.398438 266.300781 L 458.398438 244.800781 L 434.398438 244.800781 Z M 434.398438 266.300781 "/>
<path style="fill-rule:nonzero;fill:rgb(0%,0%,0%);fill-opacity:1;stroke-width:0.75;stroke-linecap:round;stroke-linejoin:round;stroke:rgb(0%,0%,0%);stroke-opacity:1;stroke-miterlimit:10;" d="M 74.398438 287.800781 L 98.398438 287.800781 L 98.398438 266.300781 L 74.398438 266.300781 Z M 74.398438 287.800781 "/>
<path style="fill-rule:nonzero;fill:rgb(0%,0%,0%);fill-opacity:1;stroke-width:0.75;stroke-linecap:round;stroke-linejoin:round;stroke:rgb(0%,0%,0%);stroke-opacity:1;stroke-miterlimit:10;" d="M 146.398438 287.800781 L 170.398438 287.800781 L 170.398438 266.300781 L 146.398438 266.300781 Z M 146.398438 287.800781 "/>
<path style="fill-rule:nonzero;fill:rgb(0%,0%,0%);fill-opacity:1;stroke-width:0.75;stroke-linecap:round;stroke-linejoin:round;stroke:rgb(0%,0%,0%);stroke-opacity:1;stroke-miterlimit:10;" d="M 194.398438 287.800781 L 218.398438 287.800781 L 218.398438 266.300781 L 194.398438 266.300781 Z M 194.398438 287.800781 "/>
<path style="fill-rule:nonzero;fill:rgb(0%,0%,0%);fill-opacity:1;stroke-width:0.75;stroke-linecap:round;stroke-linejoin:round;stroke:rgb(0%,0%,0%);stroke-opacity:1;stroke-miterlimit:10;" d="M 314.398438 287.800781 L 338.398438 287.800781 L 338.398438 266.300781 L 314.398438 266.300781 Z M 314.398438 287.800781 "/>
<path style="fill-rule:nonzero;fill:rgb(0%,0%,0%);fill-opacity:1;stroke-width:0.75;stroke-linecap:round;stroke-linejoin:round;stroke:rgb(0%,0%,0%);stroke-opacity:1;stroke-miterlimit:10;" d="M 386.398438 287.800781 L 410.398438 287.800781 L 410.398438 266.300781 L 386.398438 266.300781 Z M 386.398438 287.800781 "/>
<path style="fill-rule:nonzero;fill:rgb(0%,0%,0%);fill-opacity:1;stroke-width:0.75;stroke-linecap:round;stroke-linejoin:round;stroke:rgb(0%,0%,0%);stroke-opacity:1;stroke-miterlimit:10;" d="M 434.398438 287.800781 L 458.398438 287.800781 L 458.398438 266.300781 L 434.398438 266.300781 Z M 434.398438 287.800781 "/>
<path style="fill-rule:nonzero;fill:rgb(0%,0%,0%);fill-opacity:1;stroke-width:0.75;stroke-linecap:round;stroke-linejoin:round;stroke:rgb(0%,0%,0%);stroke-opacity:1;stroke-miterlimit:10;" d="M 74.398438 309.300781 L 98.398438 309.300781 L 98.398438 287.800781 L 74.398438 287.800781 Z M 74.398438 309.300781 "/>
<path style="fill-rule:nonzero;fill:rgb(0%,0%,0%);fill-opacity:1;stroke-width:0.75;stroke-linecap:round;stroke-linejoin:round;stroke:rgb(0%,0%,0%);stroke-opacity:1;stroke-miterlimit:10;" d="M 242.398438 309.300781 L 266.398438 309.300781 L 266.398438 287.800781 L 242.398438 287.800781 Z M 242.398438 309.300781 "/>
<path style="fill-rule:nonzero;fill:rgb(0%,0%,0%);fill-opacity:1;stroke-width:0.75;stroke-linecap:round;stroke-linejoin:round;stroke:rgb(0%,0%,0%);stroke-opacity:1;stroke-miterlimit:10;" d="M 314.398438 309.300781 L 338.398438 309.300781 L 338.398438 287.800781 L 314.398438 287.800781 Z M 314.398438 309.300781 "/>
<path style="fill-rule:nonzero;fill:rgb(0%,0%,0%);fill-opacity:1;stroke-width:0.75;stroke-linecap:round;stroke-linejoin:round;stroke:rgb(0%,0%,0%);stroke-opacity:1;stroke-miterlimit:10;" d="M 434.398438 309.300781 L 458.398438 309.300781 L 458.398438 287.800781 L 434.398438 287.800781 Z M 434.398438 309.300781 "/>
<path style="fill-rule:nonzero;fill:rgb(0%,0%,0%);fill-opacity:1;stroke-width:0.75;stroke-linecap:round;stroke-linejoin:round;stroke:rgb(0%,0%,0%);stroke-opacity:1;stroke-miterlimit:10;" d="M 74.398438 330.800781 L 98.398438 330.800781 L 98.398438 309.300781 L 74.398438 309.300781 Z M 74.398438 330.800781 "/>
<path style="fill-rule:nonzero;fill:rgb(0%,0%,0%);fill-opacity:1;stroke-width:0.75;stroke-linecap:round;stroke-linejoin:round;stroke:rgb(0%,0%,0%);stroke-opacity:1;stroke-miterlimit:10;" d="M 122.398438 330.800781 L 146.398438 330.800781 L 146.398438 309.300781 L 122.398438 309.300781 Z M 122.398438 330.800781 "/>
<path style="fill-rule:nonzero;fill:rgb(0%,0%,0%);fill-opacity:1;stroke-width:0.75;stroke-linecap:round;stroke-linejoin:round;stroke:rgb(0%,0%,0%);stroke-opacity:1;stroke-miterlimit:10;" d="M 218.398438 330.800781 L 242.398438 330.800781 L 242.398438 309.300781 L 218.398438 309.300781 Z M 218.398438 330.800781 "/>
<path style="fill-rule:nonzero;fill:rgb(0%,0%,0%);fill-opacity:1;stroke-width:0.75;stroke-linecap:round;stroke-linejoin:round;stroke:rgb(0%,0%,0%);stroke-opacity:1;stroke-miterlimit:10;" d="M 242.398438 330.800781 L 266.398438 330.800781 L 266.398438 309.300781 L 242.398438 309.300781 Z M 242.398438 330.800781 "/>
<path style="fill-rule:nonzero;fill:rgb(0%,0%,0%);fill-opacity:1;stroke-width:0.75;stroke-linecap:round;stroke-linejoin:round;stroke:rgb(0%,0%,0%);stroke-opacity:1;stroke-miterlimit:10;" d="M 410.398438 330.800781 L 434.398438 330.800781 L 434.398438 309.300781 L 410.398438 309.300781 Z M 410.398438 330.800781 "/>
<path style="fill-rule:nonzero;fill:rgb(0%,0%,0%);fill-opacity:1;stroke-width:0.75;stroke-linecap:round;stroke-linejoin:round;stroke:rgb(0%,0%,0%);stroke-opacity:1;stroke-miterlimit:10;" d="M 434.398438 330.800781 L 458.398438 330.800781 L 458.398438 309.300781 L 434.398438 309.300781 Z M 434.398438 330.800781 "/>
<path style="fill-rule:nonzero;fill:rgb(0%,0%,0%);fill-opacity:1;stroke-width:0.75;stroke-linecap:round;stroke-linejoin:round;stroke:rgb(0%,0%,0%);stroke-opacity:1;stroke-miterlimit:10;" d="M 74.398438 352.300781 L 98.398438 352.300781 L 98.398438 330.800781 L 74.398438 330.800781 Z M 74.398438 352.300781 "/>
<path style="fill-rule:nonzero;fill:rgb(0%,0%,0%);fill-opacity:1;stroke-width:0.75;stroke-linecap:round;stroke-linejoin:round;stroke:rgb(0%,0%,0%);stroke-opacity:1;stroke-miterlimit:10;" d="M 98.398438 352.300781 L 122.398438 352.300781 L 122.398438 330.800781 L 98.398438 330.800781 Z M 98.398438 352.300781 "/>
<path style="fill-rule:nonzero;fill:rgb(0%,0%,0%);fill-opacity:1;stroke-width:0.75;stroke-linecap:round;stroke-linejoin:round;stroke:rgb(0%,0%,0%);stroke-opacity:1;stroke-miterlimit:10;" d="M 146.398438 352.300781 L 170.398438 352.300781 L 170.398438 330.800781 L 146.398438 330.800781 Z M 146.398438 352.300781 "/>
<path style="fill-rule:nonzero;fill:rgb(0%,0%,0%);fill-opacity:1;stroke-width:0.75;stroke-linecap:round;stroke-linejoin:round;stroke:rgb(0%,0%,0%);stroke-opacity:1;stroke-miterlimit:10;" d="M 170.398438 352.300781 L 194.398438 352.300781 L 194.398438 330.800781 L 170.398438 330.800781 Z M 170.398438 352.300781 "/>
<path style="fill-rule:nonzero;fill:rgb(0%,0%,0%);fill-opacity:1;stroke-width:0.75;stroke-linecap:round;stroke-linejoin:round;stroke:rgb(0%,0%,0%);stroke-opacity:1;stroke-miterlimit:10;" d="M 194.398438 352.300781 L 218.398438 352.300781 L 218.398438 330.800781 L 194.398438 330.800781 Z M 194.398438 352.300781 "/>
<path style="fill-rule:nonzero;fill:rgb(0%,0%,0%);fill-opacity:1;stroke-width:0.75;stroke-linecap:round;stroke-linejoin:round;stroke:rgb(0%,0%,0%);stroke-opacity:1;stroke-miterlimit:10;" d="M 218.398438 352.300781 L 242.398438 352.300781 L 242.398438 330.800781 L 218.398438 330.800781 Z M 218.398438 352.300781 "/>
<path style="fill-rule:nonzero;fill:rgb(0%,0%,0%);fill-opacity:1;stroke-width:0.75;stroke-linecap:round;stroke-linejoin:round;stroke:rgb(0%,0%,0%);stroke-opacity:1;stroke-miterlimit:10;" d="M 266.398438 352.300781 L 290.398438 352.300781 L 290.398438 330.800781 L 266.398438 330.800781 Z M 266.398438 352.300781 "/>
<path style="fill-rule:nonzero;fill:rgb(0%,0%,0%);fill-opacity:1;stroke-width:0.75;stroke-linecap:round;stroke-linejoin:round;stroke:rgb(0%,0%,0%);stroke-opacity:1;stroke-miterlimit:10;" d="M 290.398438 352.300781 L 314.398438 352.300781 L 314.398438 330.800781 L 290.398438 330.800781 Z M 290.398438 352.300781 "/>
<path style="fill-rule:nonzero;fill:rgb(0%,0%,0%);fill-opacity:1;stroke-width:0.75;stroke-linecap:round;stroke-linejoin:round;stroke:rgb(0%,0%,0%);stroke-opacity:1;stroke-miterlimit:10;" d="M 362.398438 352.300781 L 386.398438 352.300781 L 386.398438 330.800781 L 362.398438 330.800781 Z M 362.398438 352.300781 "/>
<path style="fill-rule:nonzero;fill:rgb(0%,0%,0%);fill-opacity:1;stroke-width:0.75;stroke-linecap:round;stroke-linejoin:round;stroke:rgb(0%,0%,0%);stroke-opacity:1;stroke-miterlimit:10;" d="M 410.398438 352.300781 L 434.398438 352.300781 L 434.398438 330.800781 L 410.398438 330.800781 Z M 410.398438 352.300781 "/>
<path style="fill-rule:nonzero;fill:rgb(0%,0%,0%);fill-opacity:1;stroke-width:0.75;stroke-linecap:round;stroke-linejoin:round;stroke:rgb(0%,0%,0%);stroke-opacity:1;stroke-miterlimit:10;" d="M 434.398438 352.300781 L 458.398438 352.300781 L 458.398438 330.800781 L 434.398438 330.800781 Z M 434.398438 352.300781 "/>
<path style="fill-rule:nonzero;fill:rgb(0%,0%,0%);fill-opacity:1;stroke-width:0.75;stroke-linecap:round;stroke-linejoin:round;stroke:rgb(0%,0%,0%);stroke-opacity:1;stroke-miterlimit:10;" d="M 74.398438 373.800781 L 98.398438 373.800781 L 98.398438 352.300781 L 74.398438 352.300781 Z M 74.398438 373.800781 "/>
<path style="fill-rule:nonzero;fill:rgb(0%,0%,0%);fill-opacity:1;stroke-width:0.75;stroke-linecap:round;stroke-linejoin:round;stroke:rgb(0%,0%,0%);stroke-opacity:1;stroke-miterlimit:10;" d="M 98.398438 373.800781 L 122.398438 373.800781 L 122.398438 352.300781 L 98.398438 352.300781 Z M 98.398438 373.800781 "/>
<path style="fill-rule:nonzero;fill:rgb(0%,0%,0%);fill-opacity:1;stroke-width:0.75;stroke-linecap:round;stroke-linejoin:round;stroke:rgb(0%,0%,0%);stroke-opacity:1;stroke-miterlimit:10;" d="M 146.398438 373.800781 L 170.398438 373.800781 L 170.398438 352.300781 L 146.398438 352.300781 Z M 146.398438 373.800781 "/>
<path style="fill-rule:nonzero;fill:rgb(0%,0%,0%);fill-opacity:1;stroke-width:0.75;stroke-linecap:round;stroke-linejoin:round;stroke:rgb(0%,0%,0%);stroke-opacity:1;stroke-miterlimit:10;" d="M 194.398438 373.800781 L 218.398438 373.800781 L 218.398438 352.300781 L 194.398438 352.300781 Z M 194.398438 373.800781 "/>
<path style="fill-rule:nonzero;fill:rgb(0%,0%,0%);fill-opacity:1;stroke-width:0.75;stroke-linecap:round;stroke-linejoin:round;stroke:rgb(0%,0%,0%);stroke-opacity:1;stroke-miterlimit:10;" d="M 218.398438 373.800781 L 242.398438 373.800781 L 242.398438 352.300781 L 218.398438 352.300781 Z M 218.398438 373.800781 "/>
<path style="fill-rule:nonzero;fill:rgb(0%,0%,0%);fill-opacity:1;stroke-width:0.75;stroke-linecap:round;stroke-linejoin:round;stroke:rgb(0%,0%,0%);stroke-opacity:1;stroke-miterlimit:10;" d="M 242.398438 373.800781 L 266.398438 373.800781 L 266.398438 352.300781 L 242.398438 352.300781 Z M 242.398438 373.800781 "/>
<path style="fill-rule:nonzero;fill:rgb(0%,0%,0%);fill-opacity:1;stroke-width:0.75;stroke-linecap:round;stroke-linejoin:round;stroke:rgb(0%,0%,0%);stroke-opacity:1;stroke-miterlimit:10;" d="M 434.398438 373.800781 L 458.398438 373.800781 L 458.398438 352.300781 L 434.398438 352.300781 Z M 434.398438 373.800781 "/>
<path style="fill-rule:nonzero;fill:rgb(0%,0%,0%);fill-opacity:1;stroke-width:0.75;stroke-linecap:round;stroke-linejoin:round;stroke:rgb(0%,0%,0%);stroke-opacity:1;stroke-miterlimit:10;" d="M 74.398438 395.300781 L 98.398438 395.300781 L 98.398438 373.800781 L 74.398438 373.800781 Z M 74.398438 395.300781 "/>
<path style=" stroke:none;fill-rule:nonzero;fill:rgb(100%,64.705882%,0%);fill-opacity:1;" d="M 103.199219 391 L 117.597656 391 L 117.597656 378.101562 L 103.199219 378.101562 Z M 103.199219 391 "/>
<path style="fill-rule:nonzero;fill:rgb(0%,0%,0%);fill-opacity:1;stroke-width:0.75;stroke-linecap:round;stroke-linejoin:round;stroke:rgb(0%,0%,0%);stroke-opacity:1;stroke-miterlimit:10;" d="M 338.398438 395.300781 L 362.398438 395.300781 L 362.398438 373.800781 L 338.398438 373.800781 Z M 338.398438 395.300781 "/>
<path style="fill-rule:nonzero;fill:rgb(0%,0%,0%);fill-opacity:1;stroke-width:0.75;stroke-linecap:round;stroke-linejoin:round;stroke:rgb(0%,0%,0%);stroke-opacity:1;stroke-miterlimit:10;" d="M 434.398438 395.300781 L 458.398438 395.300781 L 458.398438 373.800781 L 434.398438 373.800781 Z M 434.398438 395.300781 "/>
<path style="fill-rule:nonzero;fill:rgb(0%,0%,0%);fill-opacity:1;stroke-width:0.75;stroke-linecap:round;stroke-linejoin:round;stroke:rgb(0%,0%,0%);stroke-opacity:1;stroke-miterlimit:10;" d="M 74.398438 416.800781 L 98.398438 416.800781 L 98.398438 395.300781 L 74.398438 395.300781 Z M 74.398438 416.800781 "/>
<path style="fill-rule:nonzero;fill:rgb(0%,0%,0%);fill-opacity:1;stroke-width:0.75;stroke-linecap:round;stroke-linejoin:round;stroke:rgb(0%,0%,0%);stroke-opacity:1;stroke-miterlimit:10;" d="M 98.398438 416.800781 L 122.398438 416.800781 L 122.398438 395.300781 L 98.398438 395.300781 Z M 98.398438 416.800781 "/>
<path style="fill-rule:nonzero;fill:rgb(0%,0%,0%);fill-opacity:1;stroke-width:0.75;stroke-linecap:round;stroke-linejoin:round;stroke:rgb(0%,0%,0%);stroke-opacity:1;stroke-miterlimit:10;" d="M 122.398438 416.800781 L 146.398438 416.800781 L 146.398438 395.300781 L 122.398438 395.300781 Z M 122.398438 416.800781 "/>
<path style="fill-rule:nonzero;fill:rgb(0%,0%,0%);fill-opacity:1;stroke-width:0.75;stroke-linecap:round;stroke-linejoin:round;stroke:rgb(0%,0%,0%);stroke-opacity:1;stroke-miterlimit:10;" d="M 146.398438 416.800781 L 170.398438 416.800781 L 170.398438 395.300781 L 146.398438 395.300781 Z M 146.398438 416.800781 "/>
<path style="fill-rule:nonzero;fill:rgb(0%,0%,0%);fill-opacity:1;stroke-width:0.75;stroke-linecap:round;stroke-linejoin:round;stroke:rgb(0%,0%,0%);stroke-opacity:1;stroke-miterlimit:10;" d="M 170.398438 416.800781 L 194.398438 416.800781 L 194.398438 395.300781 L 170.398438 395.300781 Z M 170.398438 416.800781 "/>
<path style="fill-rule:nonzero;fill:rgb(0%,0%,0%);fill-opacity:1;stroke-width:0.75;stroke-linecap:round;stroke-linejoin:round;stroke:rgb(0%,0%,0%);stroke-opacity:1;stroke-miterlimit:10;" d="M 194.398438 416.800781 L 218.398438 416.800781 L 218.398438 395.300781 L 194.398438 395.300781 Z M 194.398438 416.800781 "/>
<path style="fill-rule:nonzero;fill:rgb(0%,0%,0%);fill-opacity:1;stroke-width:0.75;stroke-linecap:round;stroke-linejoin:round;stroke:rgb(0%,0%,0%);stroke-opacity:1;stroke-miterlimit:10;" d="M 218.398438 416.800781 L 242.398438 416.800781 L 242.398438 395.300781 L 218.398438 395.300781 Z M 218.398438 416.800781 "/>
<path style="fill-rule:nonzero;fill:rgb(0%,0%,0%);fill-opacity:1;stroke-width:0.75;stroke-linecap:round;stroke-linejoin:round;stroke:rgb(0%,0%,0%);stroke-opacity:1;stroke-miterlimit:10;" d="M 242.398438 416.800781 L 266.398438 416.800781 L 266.398438 395.300781 L 242.398438 395.300781 Z M 242.398438 416.800781 "/>
<path style="fill-rule:nonzero;fill:rgb(0%,0%,0%);fill-opacity:1;stroke-width:0.75;stroke-linecap:round;stroke-linejoin:round;stroke:rgb(0%,0%,0%);stroke-opacity:1;stroke-miterlimit:10;" d="M 266.398438 416.800781 L 290.398438 416.800781 L 290.398438 395.300781 L 266.398438 395.300781 Z M 266.398438 416.800781 "/>
<path style="fill-rule:nonzero;fill:rgb(0%,0%,0%);fill-opacity:1;stroke-width:0.75;stroke-linecap:round;stroke-linejoin:round;stroke:rgb(0%,0%,0%);stroke-opacity:1;stroke-miterlimit:10;" d="M 290.398438 416.800781 L 314.398438 416.800781 L 314.398438 395.300781 L 290.398438 395.300781 Z M 290.398438 416.800781 "/>
<path style="fill-rule:nonzero;fill:rgb(0%,0%,0%);fill-opacity:1;stroke-width:0.75;stroke-linecap:round;stroke-linejoin:round;stroke:rgb(0%,0%,0%);stroke-opacity:1;stroke-miterlimit:10;" d="M 314.398438 416.800781 L 338.398438 416.800781 L 338.398438 395.300781 L 314.398438 395.300781 Z M 314.398438 416.800781 "/>
<path style="fill-rule:nonzero;fill:rgb(0%,0%,0%);fill-opacity:1;stroke-width:0.75;stroke-linecap:round;stroke-linejoin:round;stroke:rgb(0%,0%,0%);stroke-opacity:1;stroke-miterlimit:10;" d="M 338.398438 416.800781 L 362.398438 416.800781 L 362.398438 395.300781 L 338.398438 395.300781 Z M 338.398438 416.800781 "/>
<path style="fill-rule:nonzero;fill:rgb(0%,0%,0%);fill-opacity:1;stroke-width:0.75;stroke-linecap:round;stroke-linejoin:round;stroke:rgb(0%,0%,0%);stroke-opacity:1;stroke-miterlimit:10;" d="M 362.398438 416.800781 L 386.398438 416.800781 L 386.398438 395.300781 L 362.398438 395.300781 Z M 362.398438 416.800781 "/>
<path style="fill-rule:nonzero;fill:rgb(0%,0%,0%);fill-opacity:1;stroke-width:0.75;stroke-linecap:round;stroke-linejoin:round;stroke:rgb(0%,0%,0%);stroke-opacity:1;stroke-miterlimit:10;" d="M 386.398438 416.800781 L 410.398438 416.800781 L 410.398438 395.300781 L 386.398438 395.300781 Z M 386.398438 416.800781 "/>
<path style="fill-rule:nonzero;fill:rgb(0%,0%,0%);fill-opacity:1;stroke-width:0.75;stroke-linecap:round;stroke-linejoin:round;stroke:rgb(0%,0%,0%);stroke-opacity:1;stroke-miterlimit:10;" d="M 410.398438 416.800781 L 434.398438 416.800781 L 434.398438 395.300781 L 410.398438 395.300781 Z M 410.398438 416.800781 "/>
<path style="fill-rule:nonzero;fill:rgb(0%,0%,0%);fill-opacity:1;stroke-width:0.75;stroke-linecap:round;stroke-linejoin:round;stroke:rgb(0%,0%,0%);stroke-opacity:1;stroke-miterlimit:10;" d="M 434.398438 416.800781 L 458.398438 416.800781 L 458.398438 395.300781 L 434.398438 395.300781 Z M 434.398438 416.800781 "/>
</g>
</svg>
