<?xml version="1.0" encoding="UTF-8"?>
<svg xmlns="http://www.w3.org/2000/svg" xmlns:xlink="http://www.w3.org/1999/xlink" width="504pt" height="504pt" viewBox="0 0 504 504" version="1.1">
<g id="surface300">
<rect x="0" y="0" width="504" height="504" style="fill:rgb(100%,100%,100%);fill-opacity:1;stroke:none;"/>
<path style="fill-rule:nonzero;fill:rgb(0%,0%,0%);fill-opacity:1;stroke-width:0.75;stroke-linecap:round;stroke-linejoin:round;stroke:rgb(0%,0%,0%);stroke-opacity:1;stroke-miterlimit:10;" d="M 74.398438 99.261719 L 109.308594 99.261719 L 109.308594 72.800781 L 74.398438 72.800781 Z M 74.398438 99.261719 "/>
<path style="fill-rule:nonzero;fill:rgb(0%,0%,0%);fill-opacity:1;stroke-width:0.75;stroke-linecap:round;stroke-linejoin:round;stroke:rgb(0%,0%,0%);stroke-opacity:1;stroke-miterlimit:10;" d="M 109.308594 99.261719 L 144.21875 99.261719 L 144.21875 72.800781 L 109.308594 72.800781 Z M 109.308594 99.261719 "/>
<path style="fill-rule:nonzero;fill:rgb(0%,0%,0%);fill-opacity:1;stroke-width:0.75;stroke-linecap:round;stroke-linejoin:round;stroke:rgb(0%,0%,0%);stroke-opacity:1;stroke-miterlimit:10;" d="M 144.21875 99.261719 L 179.128906 99.261719 L 179.128906 72.800781 L 144.21875 72.800781 Z M 144.21875 99.261719 "/>
<path style="fill-rule:nonzero;fill:rgb(0%,0%,0%);fill-opacity:1;stroke-width:0.75;stroke-linecap:round;stroke-linejoin:round;stroke:rgb(0%,0%,0%);stroke-opacity:1;stroke-miterlimit:10;" d="M 179.128906 99.261719 L 214.039062 99.261719 L 214.039062 72.800781 L 179.128906 72.800781 Z M 179.128906 99.261719 "/>
<path style="fill-rule:nonzero;fill:rgb(0%,0%,0%);fill-opacity:1;stroke-width:0.75;stroke-linecap:round;stroke-linejoin:round;stroke:rgb(0%,0%,0%);stroke-opacity:1;stroke-miterlimit:10;" d="M 214.035156 99.261719 L 248.945312 99.261719 L 248.945312 72.800781 L 214.035156 72.800781 Z M 214.035156 99.261719 "/>
<path style="fill-rule:nonzero;fill:rgb(0%,0%,0%);fill-opacity:1;stroke-width:0.75;stroke-linecap:round;stroke-linejoin:round;stroke:rgb(0%,0%,0%);stroke-opacity:1;stroke-miterlimit:10;" d="M 248.945312 99.261719 L 283.855469 99.261719 L 283.855469 72.800781 L 248.945312 72.800781 Z M 248.945312 99.261719 "/>
<path style="fill-rule:nonzero;fill:rgb(0%,0%,0%);fill-opacity:1;stroke-width:0.75;stroke-linecap:round;stroke-linejoin:round;stroke:rgb(0%,0%,0%);stroke-opacity:1;stroke-miterlimit:10;" d="M 283.855469 99.261719 L 318.765625 99.261719 L 318.765625 72.800781 L 283.855469 72.800781 Z M 283.855469 99.261719 "/>
<path style="fill-rule:nonzero;fill:rgb(0%,0%,0%);fill-opacity:1;stroke-width:0.75;stroke-linecap:round;stroke-linejoin:round;stroke:rgb(0%,0%,0%);stroke-opacity:1;stroke-miterlimit:10;" d="M 318.761719 99.261719 L 353.671875 99.261719 L 353.671875 72.800781 L 318.761719 72.800781 Z M 318.761719 99.261719 "/>
<path style="fill-rule:nonzero;fill:rgb(0%,0%,0%);fill-opacity:1;stroke-width:0.75;stroke-linecap:round;stroke-linejoin:round;stroke:rgb(0%,0%,0%);stroke-opacity:1;stroke-miterlimit:10;" d="M 353.671875 99.261719 L 388.582031 99.261719 L 388.582031 72.800781 L 353.671875 72.800781 Z M 353.671875 99.261719 "/>
<path style="fill-rule:nonzero;fill:rgb(0%,0%,0%);fill-opacity:1;stroke-width:0.75;stroke-linecap:round;stroke-linejoin:round;stroke:rgb(0%,0%,0%);stroke-opacity:1;stroke-miterlimit:10;" d="M 388.582031 99.261719 L 423.492188 99.261719 L 423.492188 72.800781 L 388.582031 72.800781 Z M 388.582031 99.261719 "/>
<path style="fill-rule:nonzero;fill:rgb(0%,0%,0%);fill-opacity:1;stroke-width:0.75;stroke-linecap:round;stroke-linejoin:round;stroke:rgb(0%,0%,0%);stroke-opacity:1;stroke-miterlimit:10;" d="M 423.492188 99.261719 L 458.402344 99.261719 L 458.402344 72.800781 L 423.492188 72.800781 Z M 423.492188 99.261719 "/>
<path style="fill-rule:nonzero;fill:rgb(0%,0%,0%);fill-opacity:1;stroke-width:0.75;stroke-linecap:round;stroke-linejoin:round;stroke:rgb(0%,0%,0%);stroke-opacity:1;stroke-miterlimit:10;" d="M 74.398438 125.722656 L 109.308594 125.722656 L 109.308594 99.261719 L 74.398438 99.261719 Z M 74.398438 125.722656 "/>
<path style="fill-rule:nonzero;fill:rgb(0%,0%,0%);fill-opacity:1;stroke-width:0.75;stroke-linecap:round;stroke-linejoin:round;stroke:rgb(0%,0%,0%);stroke-opacity:1;stroke-miterlimit:10;" d="M 423.492188 125.722656 L 458.402344 125.722656 L 458.402344 99.261719 L 423.492188 99.261719 Z M 423.492188 125.722656 "/>
<path style="fill-rule:nonzero;fill:rgb(0%,0%,0%);fill-opacity:1;stroke-width:0.75;stroke-linecap:round;stroke-linejoin:round;stroke:rgb(0%,0%,0%);stroke-opacity:1;stroke-miterlimit:10;" d="M 74.398438 152.183594 L 109.308594 152.183594 L 109.308594 125.722656 L 74.398438 125.722656 Z M 74.398438 152.183594 "/>
<path style="fill-rule:nonzero;fill:rgb(0%,0%,0%);fill-opacity:1;stroke-width:0.75;stroke-linecap:round;stroke-linejoin:round;stroke:rgb(0%,0%,0%);stroke-opacity:1;stroke-miterlimit:10;" d="M 144.21875 152.183594 L 179.128906 152.183594 L 179.128906 125.722656 L 144.21875 125.722656 Z M 144.21875 152.183594 "/>
<path style="fill-rule:nonzero;fill:rgb(0%,0%,0%);fill-opacity:1;stroke-width:0.75;stroke-linecap:round;stroke-linejoin:round;stroke:rgb(0%,0%,0%);stroke-opacity:1;stroke-miterlimit:10;" d="M 179.128906 152.183594 L 214.039062 152.183594 L 214.039062 125.722656 L 179.128906 125.722656 Z M 179.128906 152.183594 "/>
<path style="fill-rule:nonzero;fill:rgb(0%,0%,0%);fill-opacity:1;stroke-width:0.75;stroke-linecap:round;stroke-linejoin:round;stroke:rgb(0%,0%,0%);stroke-opacity:1;stroke-miterlimit:10;" d="M 214.035156 152.183594 L 248.945312 152.183594 L 248.945312 125.722656 L 214.035156 125.722656 Z M 214.035156 152.183594 "/>
<path style="fill-rule:nonzero;fill:rgb(0%,0%,0%);fill-opacity:1;stroke-width:0.75;stroke-linecap:round;stroke-linejoin:round;stroke:rgb(0%,0%,0%);stroke-opacity:1;stroke-miterlimit:10;" d="M 248.945312 152.183594 L 283.855469 152.183594 L 283.855469 125.722656 L 248.945312 125.722656 Z M 248.945312 152.183594 "/>
<path style="fill-rule:nonzero;fill:rgb(0%,0%,0%);fill-opacity:1;stroke-width:0.75;stroke-linecap:round;stroke-linejoin:round;stroke:rgb(0%,0%,0%);stroke-opacity:1;stroke-miterlimit:10;" d="M 318.761719 152.183594 L 353.671875 152.183594 L 353.671875 125.722656 L 318.761719 125.722656 Z M 318.761719 152.183594 "/>
<path style="fill-rule:nonzero;fill:rgb(0%,0%,0%);fill-opacity:1;stroke-width:0.75;stroke-linecap:round;stroke-linejoin:round;stroke:rgb(0%,0%,0%);stroke-opacity:1;stroke-miterlimit:10;" d="M 353.671875 152.183594 L 388.582031 152.183594 L 388.582031 125.722656 L 353.671875 125.722656 Z M 353.671875 152.183594 "/>
<path style="fill-rule:nonzero;fill:rgb(0%,0%,0%);fill-opacity:1;stroke-width:0.75;stroke-linecap:round;stroke-linejoin:round;stroke:rgb(0%,0%,0%);stroke-opacity:1;stroke-miterlimit:10;" d="M 423.492188 152.183594 L 458.402344 152.183594 L 458.402344 125.722656 L 423.492188 125.722656 Z M 423.492188 152.183594 "/>
<path style="fill-rule:nonzero;fill:rgb(0%,0%,0%);fill-opacity:1;stroke-width:0.75;stroke-linecap:round;stroke-linejoin:round;stroke:rgb(0%,0%,0%);stroke-opacity:1;stroke-miterlimit:10;" d="M 74.398438 178.644531 L 109.308594 178.644531 L 109.308594 152.183594 L 74.398438 152.183594 Z M 74.398438 178.644531 "/>
<path style="fill-rule:nonzero;fill:rgb(0%,0%,0%);fill-opacity:1;stroke-width:0.75;stroke-linecap:round;stroke-linejoin:round;stroke:rgb(0%,0%,0%);stroke-opacity:1;stroke-miterlimit:10;" d="M 248.945312 178.644531 L 283.855469 178.644531 L 283.855469 152.183594 L 248.945312 152.183594 Z M 248.945312 178.644531 "/>
<path style="fill-rule:nonzero;fill:rgb(0%,0%,0%);fill-opacity:1;stroke-width:0.75;stroke-linecap:round;stroke-linejoin:round;stroke:rgb(0%,0%,0%);stroke-opacity:1;stroke-miterlimit:10;" d="M 353.671875 178.644531 L 388.582031 178.644531 L 388.582031 152.183594 L 353.671875 152.183594 Z M 353.671875 178.644531 "/>
<path style="fill-rule:nonzero;fill:rgb(0%,0%,0%);fill-opacity:1;stroke-width:0.75;stroke-linecap:round;stroke-linejoin:round;stroke:rgb(0%,0%,0%);stroke-opacity:1;stroke-miterlimit:10;" d="M 423.492188 178.644531 L 458.402344 178.644531 L 458.402344 152.183594 L 423.492188 152.183594 Z M 423.492188 178.644531 "/>
<path style="fill-rule:nonzero;fill:rgb(0%,0%,0%);fill-opacity:1;stroke-width:0.75;stroke-linecap:round;stroke-linejoin:round;stroke:rgb(0%,0%,0%);stroke-opacity:1;stroke-miterlimit:10;" d="M 74.398438 205.109375 L 109.308594 205.109375 L 109.308594 178.648438 L 74.398438 178.648438 Z M 74.398438 205.109375 "/>
<path style="fill-rule:nonzero;fill:rgb(0%,0%,0%);fill-opacity:1;stroke-width:0.75;stroke-linecap:round;stroke-linejoin:round;stroke:rgb(0%,0%,0%);stroke-opacity:1;stroke-miterlimit:10;" d="M 109.308594 205.109375 L 144.21875 205.109375 L 144.21875 178.648438 L 109.308594 178.648438 Z M 109.308594 205.109375 "/>
<path style="fill-rule:nonzero;fill:rgb(0%,0%,0%);fill-opacity:1;stroke-width:0.75;stroke-linecap:round;stroke-linejoin:round;stroke:rgb(0%,0%,0%);stroke-opacity:1;stroke-miterlimit:10;" d="M 179.128906 205.109375 L 214.039062 205.109375 L 214.039062 178.648438 L 179.128906 178.648438 Z M 179.128906 205.109375 "/>
<path style="fill-rule:nonzero;fill:rgb(0%,0%,0%);fill-opacity:1;stroke-width:0.75;stroke-linecap:round;stroke-linejoin:round;stroke:rgb(0%,0%,0%);stroke-opacity:1;stroke-miterlimit:10;" d="M 248.945312 205.109375 L 283.855469 205.109375 L 283.855469 178.648438 L 248.945312 178.648438 Z M 248.945312 205.109375 "/>
<path style="fill-rule:nonzero;fill:rgb(0%,0%,0%);fill-opacity:1;stroke-width:0.75;stroke-linecap:round;stroke-linejoin:round;stroke:rgb(0%,0%,0%);stroke-opacity:1;stroke-miterlimit:10;" d="M 318.761719 205.109375 L 353.671875 205.109375 L 353.671875 178.648438 L 318.761719 178.648438 Z M 318.761719 205.109375 "/>
<path style="fill-rule:nonzero;fill:rgb(0%,0%,0%);fill-opacity:1;stroke-width:0.75;stroke-linecap:round;stroke-linejoin:round;stroke:rgb(0%,0%,0%);stroke-opacity:1;stroke-miterlimit:10;" d="M 353.671875 205.109375 L 388.582031 205.109375 L 388.582031 178.648438 L 353.671875 178.648438 Z M 353.671875 205.109375 "/>
<path style="fill-rule:nonzero;fill:rgb(0%,0%,0%);fill-opacity:1;stroke-width:0.75;stroke-linecap:round;stroke-linejoin:round;stroke:rgb(0%,0%,0%);stroke-opacity:1;stroke-miterlimit:10;" d="M 423.492188 205.109375 L 458.402344 205.109375 L 458.402344 178.648438 L 423.492188 178.648438 Z M 423.492188 205.109375 "/>
<path style="fill-rule:nonzero;fill:rgb(0%,0%,0%);fill-opacity:1;stroke-width:0.75;stroke-linecap:round;stroke-linejoin:round;stroke:rgb(0%,0%,0%);stroke-opacity:1;stroke-miterlimit:10;" d="M 74.398438 231.570312 L 109.308594 231.570312 L 109.308594 205.109375 L 74.398438 205.109375 Z M 74.398438 231.570312 "/>
<path style="fill-rule:nonzero;fill:rgb(0%,0%,0%);fill-opacity:1;stroke-width:0.75;stroke-linecap:round;stroke-linejoin:round;stroke:rgb(0%,0%,0%);stroke-opacity:1;stroke-miterlimit:10;" d="M 318.761719 231.570312 L 353.671875 231.570312 L 353.671875 205.109375 L 318.761719 205.109375 Z M 318.761719 231.570312 "/>
<path style="fill-rule:nonzero;fill:rgb(0%,0%,0%);fill-opacity:1;stroke-width:0.75;stroke-linecap:round;stroke-linejoin:round;stroke:rgb(0%,0%,0%);stroke-opacity:1;stroke-miterlimit:10;" d="M 423.492188 231.570312 L 458.402344 231.570312 L 458.402344 205.109375 L 423.492188 205.109375 Z M 423.492188 231.570312 "/>
<path style="fill-rule:nonzero;fill:rgb(0%,0%,0%);fill-opacity:1;stroke-width:0.75;stroke-linecap:round;stroke-linejoin:round;stroke:rgb(0%,0%,0%);stroke-opacity:1;stroke-miterlimit:10;" d="M 74.398438 258.03125 L 109.308594 258.03125 L 109.308594 231.570312 L 74.398438 231.570312 Z M 74.398438 258.03125 "/>
<path style="fill-rule:nonzero;fill:rgb(0%,0%,0%);fill-opacity:1;stroke-width:0.75;stroke-linecap:round;stroke-linejoin:round;stroke:rgb(0%,0%,0%);stroke-opacity:1;stroke-miterlimit:10;" d="M 144.21875 258.03125 L 179.128906 258.03125 L 179.128906 231.570312 L 144.21875 231.570312 Z M 144.21875 258.03125 "/>
<path style="fill-rule:nonzero;fill:rgb(0%,0%,0%);fill-opacity:1;stroke-width:0.75;stroke-linecap:round;stroke-linejoin:round;stroke:rgb(0%,0%,0%);stroke-opacity:1;stroke-miterlimit:10;" d="M 179.128906 258.03125 L 214.039062 258.03125 L 214.039062 231.570312 L 179.128906 231.570312 Z M 179.128906 258.03125 "/>
<path style="fill-rule:nonzero;fill:rgb(0%,0%,0%);fill-opacity:1;stroke-width:0.75;stroke-linecap:round;stroke-linejoin:round;stroke:rgb(0%,0%,0%);stroke-opacity:1;stroke-miterlimit:10;" d="M 214.035156 258.03125 L 248.945312 258.03125 L 248.945312 231.570312 L 214.035156 231.570312 Z M 214.035156 258.03125 "/>
<path style="fill-rule:nonzero;fill:rgb(0%,0%,0%);fill-opacity:1;stroke-width:0.75;stroke-linecap:round;stroke-linejoin:round;stroke:rgb(0%,0%,0%);stroke-opacity:1;stroke-miterlimit:10;" d="M 248.945312 258.03125 L 283.855469 258.03125 L 283.855469 231.570312 L 248.945312 231.570312 Z M 248.945312 258.03125 "/>
<path style="fill-rule:nonzero;fill:rgb(0%,0%,0%);fill-opacity:1;stroke-width:0.75;stroke-linecap:round;stroke-linejoin:round;stroke:rgb(0%,0%,0%);stroke-opacity:1;stroke-miterlimit:10;" d="M 283.855469 258.03125 L 318.765625 258.03125 L 318.765625 231.570312 L 283.855469 231.570312 Z M 283.855469 258.03125 "/>
<path style="fill-rule:nonzero;fill:rgb(0%,0%,0%);fill-opacity:1;stroke-width:0.75;stroke-linecap:round;stroke-linejoin:round;stroke:rgb(0%,0%,0%);stroke-opacity:1;stroke-miterlimit:10;" d="M 388.582031 258.03125 L 423.492188 258.03125 L 423.492188 231.570312 L 388.582031 231.570312 Z M 388.582031 258.03125 "/>
<path style="fill-rule:nonzero;fill:rgb(0%,0%,0%);fill-opacity:1;stroke-width:0.75;stroke-linecap:round;stroke-linejoin:round;stroke:rgb(0%,0%,0%);stroke-opacity:1;stroke-miterlimit:10;" d="M 423.492188 258.03125 L 458.402344 258.03125 L 458.402344 231.570312 L 423.492188 231.570312 Z M 423.492188 258.03125 "/>
<path style="fill-rule:nonzero;fill:rgb(0%,0%,0%);fill-opacity:1;stroke-width:0.75;stroke-linecap:round;stroke-linejoin:round;stroke:rgb(0%,0%,0%);stroke-opacity:1;stroke-miterlimit:10;" d="M 74.398438 284.492188 L 109.308594 284.492188 L 109.308594 258.03125 L 74.398438 258.03125 Z M 74.398438 284.492188 "/>
<path style="fill-rule:nonzero;fill:rgb(0%,0%,0%);fill-opacity:1;stroke-width:0.75;stroke-linecap:round;stroke-linejoin:round;stroke:rgb(0%,0%,0%);stroke-opacity:1;stroke-miterlimit:10;" d="M 144.21875 284.492188 L 179.128906 284.492188 L 179.128906 258.03125 L 144.21875 258.03125 Z M 144.21875 284.492188 "/>
<path style="fill-rule:nonzero;fill:rgb(0%,0%,0%);fill-opacity:1;stroke-width:0.75;stroke-linecap:round;stroke-linejoin:round;stroke:rgb(0%,0%,0%);stroke-opacity:1;stroke-miterlimit:10;" d="M 214.035156 284.492188 L 248.945312 284.492188 L 248.945312 258.03125 L 214.035156 258.03125 Z M 214.035156 284.492188 "/>
<path style="fill-rule:nonzero;fill:rgb(0%,0%,0%);fill-opacity:1;stroke-width:0.75;stroke-linecap:round;stroke-linejoin:round;stroke:rgb(0%,0%,0%);stroke-opacity:1;stroke-miterlimit:10;" d="M 283.855469 284.492188 L 318.765625 284.492188 L 318.765625 258.03125 L 283.855469 258.03125 Z M 283.855469 284.492188 "/>
<path style="fill-rule:nonzero;fill:rgb(0%,0%,0%);fill-opacity:1;stroke-width:0.75;stroke-linecap:round;stroke-linejoin:round;stroke:rgb(0%,0%,0%);stroke-opacity:1;stroke-miterlimit:10;" d="M 353.671875 284.492188 L 388.582031 284.492188 L 388.582031 258.03125 L 353.671875 258.03125 Z M 353.671875 284.492188 "/>
<path style="fill-rule:nonzero;fill:rgb(0%,0%,0%);fill-opacity:1;stroke-width:0.75;stroke-linecap:round;stroke-linejoin:round;stroke:rgb(0%,0%,0%);stroke-opacity:1;stroke-miterlimit:10;" d="M 423.492188 284.492188 L 458.402344 284.492188 L 458.402344 258.03125 L 423.492188 258.03125 Z M 423.492188 284.492188 "/>
<path style="fill-rule:nonzero;fill:rgb(0%,0%,0%);fill-opacity:1;stroke-width:0.75;stroke-linecap:round;stroke-linejoin:round;stroke:rgb(0%,0%,0%);stroke-opacity:1;stroke-miterlimit:10;" d="M 74.398438 310.953125 L 109.308594 310.953125 L 109.308594 284.492188 L 74.398438 284.492188 Z M 74.398438 310.953125 "/>
<path style="fill-rule:nonzero;fill:rgb(0%,0%,0%);fill-opacity:1;stroke-width:0.75;stroke-linecap:round;stroke-linejoin:round;stroke:rgb(0%,0%,0%);stroke-opacity:1;stroke-miterlimit:10;" d="M 144.21875 310.953125 L 179.128906 310.953125 L 179.128906 284.492188 L 144.21875 284.492188 Z M 144.21875 310.953125 "/>
<path style=" stroke:none;fill-rule:nonzero;fill:rgb(100%,64.705882%,0%);fill-opacity:1;" d="M 221.019531 305.660156 L 241.964844 305.660156 L 241.964844 289.785156 L 221.019531 289.785156 Z M 221.019531 305.660156 "/>
<path style="fill-rule:nonzero;fill:rgb(0%,0%,0%);fill-opacity:1;stroke-width:0.75;stroke-linecap:round;stroke-linejoin:round;stroke:rgb(0%,0%,0%);stroke-opacity:1;stroke-miterlimit:10;" d="M 283.855469 310.953125 L 318.765625 310.953125 L 318.765625 284.492188 L 283.855469 284.492188 Z M 283.855469 310.953125 "/>
<path style="fill-rule:nonzero;fill:rgb(0%,0%,0%);fill-opacity:1;stroke-width:0.75;stroke-linecap:round;stroke-linejoin:round;stroke:rgb(0%,0%,0%);stroke-opacity:1;stroke-miterlimit:10;" d="M 423.492188 310.953125 L 458.402344 310.953125 L 458.402344 284.492188 L 423.492188 284.492188 Z M 423.492188 310.953125 "/>
<path style="fill-rule:nonzero;fill:rgb(0%,0%,0%);fill-opacity:1;stroke-width:0.75;stroke-linecap:round;stroke-linejoin:round;stroke:rgb(0%,0%,0%);stroke-opacity:1;stroke-miterlimit:10;" d="M 74.398438 337.414062 L 109.308594 337.414062 L 109.308594 310.953125 L 74.398438 310.953125 Z M 74.398438 337.414062 "/>
<path style="fill-rule:nonzero;fill:rgb(0%,0%,0%);fill-opacity:1;stroke-width:0.75;stroke-linecap:round;stroke-linejoin:round;stroke:rgb(0%,0%,0%);stroke-opacity:1;stroke-miterlimit:10;" d="M 214.035156 337.414062 L 248.945312 337.414062 L 248.945312 310.953125 L 214.035156 310.953125 Z M 214.035156 337.414062 "/>
<path style="fill-rule:nonzero;fill:rgb(0%,0%,0%);fill-opacity:1;stroke-width:0.75;stroke-linecap:round;stroke-linejoin:round;stroke:rgb(0%,0%,0%);stroke-opacity:1;stroke-miterlimit:10;" d="M 283.855469 337.414062 L 318.765625 337.414062 L 318.765625 310.953125 L 283.855469 310.953125 Z M 283.855469 337.414062 "/>
<path style="fill-rule:nonzero;fill:rgb(0%,0%,0%);fill-opacity:1;stroke-width:0.75;stroke-linecap:round;stroke-linejoin:round;stroke:rgb(0%,0%,0%);stroke-opacity:1;stroke-miterlimit:10;" d="M 353.671875 337.414062 L 388.582031 337.414062 L 388.582031 310.953125 L 353.671875 310.953125 Z M 353.671875 337.414062 "/>
<path style="fill-rule:nonzero;fill:rgb(0%,0%,0%);fill-opacity:1;stroke-width:0.75;stroke-linecap:round;stroke-linejoin:round;stroke:rgb(0%,0%,0%);stroke-opacity:1;stroke-miterlimit:10;" d="M 423.492188 337.414062 L 458.402344 337.414062 L 458.402344 310.953125 L 423.492188 310.953125 Z M 423.492188 337.414062 "/>
<path style="fill-rule:nonzero;fill:rgb(0%,0%,0%);fill-opacity:1;stroke-width:0.75;stroke-linecap:round;stroke-linejoin:round;stroke:rgb(0%,0%,0%);stroke-opacity:1;stroke-miterlimit:10;" d="M 74.398438 363.875 L 109.308594 363.875 L 109.308594 337.414062 L 74.398438 337.414062 Z M 74.398438 363.875 "/>
<path style="fill-rule:nonzero;fill:rgb(0%,0%,0%);fill-opacity:1;stroke-width:0.75;stroke-linecap:round;stroke-linejoin:round;stroke:rgb(0%,0%,0%);stroke-opacity:1;stroke-miterlimit:10;" d="M 144.21875 363.875 L 179.128906 363.875 L 179.128906 337.414062 L 144.21875 337.414062 Z M 144.21875 363.875 "/>
<path style="fill-rule:nonzero;fill:rgb(0%,0%,0%);fill-opacity:1;stroke-width:0.75;stroke-linecap:round;stroke-linejoin:round;stroke:rgb(0%,0%,0%);stroke-opacity:1;stroke-miterlimit:10;" d="M 214.035156 363.875 L 248.945312 363.875 L 248.945312 337.414062 L 214.035156 337.414062 Z M 214.035156 363.875 "/>
<path style="fill-rule:nonzero;fill:rgb(0%,0%,0%);fill-opacity:1;stroke-width:0.75;stroke-linecap:round;stroke-linejoin:round;stroke:rgb(0%,0%,0%);stroke-opacity:1;stroke-miterlimit:10;" d="M 283.855469 363.875 L 318.765625 363.875 L 318.765625 337.414062 L 283.855469 337.414062 Z M 283.855469 363.875 "/>
<path style="fill-rule:nonzero;fill:rgb(0%,0%,0%);fill-opacity:1;stroke-width:0.75;stroke-linecap:round;stroke-linejoin:round;stroke:rgb(0%,0%,0%);stroke-opacity:1;stroke-miterlimit:10;" d="M 353.671875 363.875 L 388.582031 363.875 L 388.582031 337.414062 L 353.671875 337.414062 Z M 353.671875 363.875 "/>
<path style="fill-rule:nonzero;fill:rgb(0%,0%,0%);fill-opacity:1;stroke-width:0.75;stroke-linecap:round;stroke-linejoin:round;stroke:rgb(0%,0%,0%);stroke-opacity:1;stroke-miterlimit:10;" d="M 423.492188 363.875 L 458.402344 363.875 L 458.402344 337.414062 L 423.492188 337.414062 Z M 423.492188 363.875 "/>
<path style="fill-rule:nonzero;fill:rgb(0%,0%,0%);fill-opacity:1;stroke-width:0.75;stroke-linecap:round;stroke-linejoin:round;stroke:rgb(0%,0%,0%);stroke-opacity:1;stroke-miterlimit:10;" d="M 74.398438 390.339844 L 109.308594 390.339844 L 109.308594 363.878906 L 74.398438 363.878906 Z M 74.398438 390.339844 "/>
<path style="fill-rule:nonzero;fill:rgb(0%,0%,0%);fill-opacity:1;stroke-width:0.75;stroke-linecap:round;stroke-linejoin:round;stroke:rgb(0%,0%,0%);stroke-opacity:1;stroke-miterlimit:10;" d="M 144.21875 390.339844 L 179.128906 390.339844 L 179.128906 363.878906 L 144.21875 363.878906 Z M 144.21875 390.339844 "/>
<path style="fill-rule:nonzero;fill:rgb(0%,0%,0%);fill-opacity:1;stroke-width:0.75;stroke-linecap:round;stroke-linejoin:round;stroke:rgb(0%,0%,0%);stroke-opacity:1;stroke-miterlimit:10;" d="M 283.855469 390.339844 L 318.765625 390.339844 L 318.765625 363.878906 L 283.855469 363.878906 Z M 283.855469 390.339844 "/>
<path style="fill-rule:nonzero;fill:rgb(0%,0%,0%);fill-opacity:1;stroke-width:0.75;stroke-linecap:round;stroke-linejoin:round;stroke:rgb(0%,0%,0%);stroke-opacity:1;stroke-miterlimit:10;" d="M 353.671875 390.339844 L 388.582031 390.339844 L 388.582031 363.878906 L 353.671875 363.878906 Z M 353.671875 390.339844 "/>
<path style=" stroke:none;fill-rule:nonzero;fill:rgb(0%,100%,0%);fill-opacity:1;" d="M 395.5625 385.046875 L 416.507812 385.046875 L 416.507812 369.171875 L 395.5625 369.171875 Z M 395.5625 385.046875 "/>
<path style="fill-rule:nonzero;fill:rgb(0%,0%,0%);fill-opacity:1;stroke-width:0.75;stroke-linecap:round;stroke-linejoin:round;stroke:rgb(0%,0%,0%);stroke-opacity:1;stroke-miterlimit:10;" d="M 423.492188 390.339844 L 458.402344 390.339844 L 458.402344 363.878906 L 423.492188 363.878906 Z M 423.492188 390.339844 "/>
<path style="fill-rule:nonzero;fill:rgb(0%,0%,0%);fill-opacity:1;stroke-width:0.75;stroke-linecap:round;stroke-linejoin:round;stroke:rgb(0%,0%,0%);stroke-opacity:1;stroke-miterlimit:10;" d="M 74.398438 416.800781 L 109.308594 416.800781 L 109.308594 390.339844 L 74.398438 390.339844 Z M 74.398438 416.800781 "/>
<path style="fill-rule:nonzero;fill:rgb(0%,0%,0%);fill-opacity:1;stroke-width:0.75;stroke-linecap:round;stroke-linejoin:round;stroke:rgb(0%,0%,0%);stroke-opacity:1;stroke-miterlimit:10;" d="M 109.308594 416.800781 L 144.21875 416.800781 L 144.21875 390.339844 L 109.308594 390.339844 Z M 109.308594 416.800781 "/>
<path style="fill-rule:nonzero;fill:rgb(0%,0%,0%);fill-opacity:1;stroke-width:0.75;stroke-linecap:round;stroke-linejoin:round;stroke:rgb(0%,0%,0%);stroke-opacity:1;stroke-miterlimit:10;" d="M 144.21875 416.800781 L 179.128906 416.800781 L 179.128906 390.339844 L 144.21875 390.339844 Z M 144.21875 416.800781 "/>
<path style="fill-rule:nonzero;fill:rgb(0%,0%,0%);fill-opacity:1;stroke-width:0.75;stroke-linecap:round;stroke-linejoin:round;stroke:rgb(0%,0%,0%);stroke-opacity:1;stroke-miterlimit:10;" d="M 179.128906 416.800781 L 214.039062 416.800781 L 214.039062 390.339844 L 179.128906 390.339844 Z M 179.128906 416.800781 "/>
<path style="fill-rule:nonzero;fill:rgb(0%,0%,0%);fill-opacity:1;stroke-width:0.75;stroke-linecap:round;stroke-linejoin:round;stroke:rgb(0%,0%,0%);stroke-opacity:1;stroke-miterlimit:10;" d="M 214.035156 416.800781 L 248.945312 416.800781 L 248.945312 390.339844 L 214.035156 390.339844 Z M 214.035156 416.800781 "/>
<path style="fill-rule:nonzero;fill:rgb(0%,0%,0%);fill-opacity:1;stroke-width:0.75;stroke-linecap:round;stroke-linejoin:round;stroke:rgb(0%,0%,0%);stroke-opacity:1;stroke-miterlimit:10;" d="M 248.945312 416.800781 L 283.855469 416.800781 L 283.855469 390.339844 L 248.945312 390.339844 Z M 248.945312 416.800781 "/>
<path style="fill-rule:nonzero;fill:rgb(0%,0%,0%);fill-opacity:1;stroke-width:0.75;stroke-linecap:round;stroke-linejoin:round;stroke:rgb(0%,0%,0%);stroke-opacity:1;stroke-miterlimit:10;" d="M 283.855469 416.800781 L 318.765625 416.800781 L 318.765625 390.339844 L 283.855469 390.339844 Z M 283.855469 416.800781 "/>
<path style="fill-rule:nonzero;fill:rgb(0%,0%,0%);fill-opacity:1;stroke-width:0.75;stroke-linecap:round;stroke-linejoin:round;stroke:rgb(0%,0%,0%);stroke-opacity:1;stroke-miterlimit:10;" d="M 318.761719 416.800781 L 353.671875 416.800781 L 353.671875 390.339844 L 318.761719 390.339844 Z M 318.761719 416.800781 "/>
<path style="fill-rule:nonzero;fill:rgb(0%,0%,0%);fill-opacity:1;stroke-width:0.75;stroke-linecap:round;stroke-linejoin:round;stroke:rgb(0%,0%,0%);stroke-opacity:1;stroke-miterlimit:10;" d="M 353.671875 416.800781 L 388.582031 416.800781 L 388.582031 390.339844 L 353.671875 390.339844 Z M 353.671875 416.800781 "/>
<path style="fill-rule:nonzero;fill:rgb(0%,0%,0%);fill-opacity:1;stroke-width:0.75;stroke-linecap:round;stroke-linejoin:round;stroke:rgb(0%,0%,0%);stroke-opacity:1;stroke-miterlimit:10;" d="M 388.582031 416.800781 L 423.492188 416.800781 L 423.492188 390.339844 L 388.582031 390.339844 Z M 388.582031 416.800781 "/>
<path style="fill-rule:nonzero;fill:rgb(0%,0%,0%);fill-opacity:1;stroke-width:0.75;stroke-linecap:round;stroke-linejoin:round;stroke:rgb(0%,0%,0%);stroke-opacity:1;stroke-miterlimit:10;" d="M 423.492188 416.800781 L 458.402344 416.800781 L 458.402344 390.339844 L 423.492188 390.339844 Z M 423.492188 416.800781 "/>
</g>
</svg>
