<?xml version="1.0" encoding="UTF-8" standalone="no"?>
<!DOCTYPE svg PUBLIC "-//W3C//DTD SVG 1.1//EN"
 "http://www.w3.org/Graphics/SVG/1.1/DTD/svg11.dtd">
<!-- Generated by graphviz version 2.26.3 (20100126.1600)
 -->
<!-- Title: arbre Pages: 1 -->
<svg width="1873pt" height="934pt"
 viewBox="0.00 0.00 1873.00 934.00" xmlns="http://www.w3.org/2000/svg" xmlns:xlink="http://www.w3.org/1999/xlink">
<g id="graph1" class="graph" transform="scale(1 1) rotate(0) translate(4 930)">
<title>arbre</title>
<polygon fill="white" stroke="white" points="-4,5 -4,-930 1870,-930 1870,5 -4,5"/>
<!-- 8592 -->
<g id="node1" class="node"><title>8592</title>
<ellipse fill="none" stroke="black" cx="1177" cy="-907" rx="36.977" ry="18.3848"/>
<text text-anchor="middle" x="1177" y="-903.4" font-family="Times Roman,serif" font-size="14.00">8592</text>
</g>
<!-- 2601 -->
<g id="node3" class="node"><title>2601</title>
<ellipse fill="none" stroke="black" cx="958" cy="-833" rx="36.977" ry="18.3848"/>
<text text-anchor="middle" x="958" y="-829.4" font-family="Times Roman,serif" font-size="14.00">2601</text>
</g>
<!-- 8592&#45;&#45;2601 -->
<g id="edge2" class="edge"><title>8592:sw&#45;&#45;2601</title>
<path fill="none" stroke="black" d="M1160,-890C1136.62,-866.617 1044.85,-847.739 993.424,-838.731"/>
</g>
<!-- 8919 -->
<g id="node167" class="node"><title>8919</title>
<ellipse fill="none" stroke="black" cx="1426" cy="-833" rx="36.977" ry="18.3848"/>
<text text-anchor="middle" x="1426" y="-829.4" font-family="Times Roman,serif" font-size="14.00">8919</text>
</g>
<!-- 8592&#45;&#45;8919 -->
<g id="edge166" class="edge"><title>8592:se&#45;&#45;8919</title>
<path fill="none" stroke="black" d="M1194,-890C1221.27,-862.725 1331.39,-844.994 1389.57,-837.337"/>
</g>
<!-- 2548 -->
<g id="node5" class="node"><title>2548</title>
<ellipse fill="none" stroke="black" cx="704" cy="-759" rx="36.977" ry="18.3848"/>
<text text-anchor="middle" x="704" y="-755.4" font-family="Times Roman,serif" font-size="14.00">2548</text>
</g>
<!-- 2601&#45;&#45;2548 -->
<g id="edge4" class="edge"><title>2601:sw&#45;&#45;2548</title>
<path fill="none" stroke="black" d="M941,-816C913.021,-788.021 799.458,-770.503 740.273,-763.093"/>
</g>
<!-- 2728 -->
<g id="node63" class="node"><title>2728</title>
<ellipse fill="none" stroke="black" cx="975" cy="-759" rx="36.977" ry="18.3848"/>
<text text-anchor="middle" x="975" y="-755.4" font-family="Times Roman,serif" font-size="14.00">2728</text>
</g>
<!-- 2601&#45;&#45;2728 -->
<g id="edge62" class="edge"><title>2601:se&#45;&#45;2728</title>
<path fill="none" stroke="black" d="M975,-816C984.796,-806.204 983.878,-790.075 981.034,-777.47"/>
</g>
<!-- 236 -->
<g id="node7" class="node"><title>236</title>
<ellipse fill="none" stroke="black" cx="508" cy="-685" rx="31.1127" ry="18.3848"/>
<text text-anchor="middle" x="508" y="-681.4" font-family="Times Roman,serif" font-size="14.00">236</text>
</g>
<!-- 2548&#45;&#45;236 -->
<g id="edge6" class="edge"><title>2548:sw&#45;&#45;236</title>
<path fill="none" stroke="black" d="M687,-742C665.783,-720.783 582.594,-700.619 537.478,-690.955"/>
</g>
<!-- 129 -->
<g id="node9" class="node"><title>129</title>
<ellipse fill="none" stroke="black" cx="416" cy="-611" rx="31.1127" ry="18.3848"/>
<text text-anchor="middle" x="416" y="-607.4" font-family="Times Roman,serif" font-size="14.00">129</text>
</g>
<!-- 236&#45;&#45;129 -->
<g id="edge8" class="edge"><title>236:sw&#45;&#45;129</title>
<path fill="none" stroke="black" d="M492,-669C475.1,-652.1 453.165,-635.861 437.208,-624.886"/>
</g>
<!-- 2272 -->
<g id="node15" class="node"><title>2272</title>
<ellipse fill="none" stroke="black" cx="524" cy="-611" rx="36.977" ry="18.3848"/>
<text text-anchor="middle" x="524" y="-607.4" font-family="Times Roman,serif" font-size="14.00">2272</text>
</g>
<!-- 236&#45;&#45;2272 -->
<g id="edge14" class="edge"><title>236:se&#45;&#45;2272</title>
<path fill="none" stroke="black" d="M524,-669C534.039,-658.961 533.02,-642.385 530.078,-629.519"/>
</g>
<!-- 5 -->
<g id="node11" class="node"><title>5</title>
<ellipse fill="none" stroke="black" cx="338" cy="-537" rx="27" ry="18.3848"/>
<text text-anchor="middle" x="338" y="-533.4" font-family="Times Roman,serif" font-size="14.00">5</text>
</g>
<!-- 129&#45;&#45;5 -->
<g id="edge10" class="edge"><title>129:sw&#45;&#45;5</title>
<path fill="none" stroke="black" d="M400,-595C384.887,-579.887 367.004,-563.287 354.337,-551.733"/>
</g>
<!-- 7 -->
<g id="node13" class="node"><title>7</title>
<ellipse fill="none" stroke="black" cx="314" cy="-463" rx="27" ry="18.3848"/>
<text text-anchor="middle" x="314" y="-459.4" font-family="Times Roman,serif" font-size="14.00">7</text>
</g>
<!-- 5&#45;&#45;7 -->
<g id="edge12" class="edge"><title>5:se&#45;&#45;7</title>
<path fill="none" stroke="black" d="M353,-522C366.718,-508.282 348.647,-489.023 332.801,-476.288"/>
</g>
<!-- 1682 -->
<g id="node17" class="node"><title>1682</title>
<ellipse fill="none" stroke="black" cx="459" cy="-537" rx="36.977" ry="18.3848"/>
<text text-anchor="middle" x="459" y="-533.4" font-family="Times Roman,serif" font-size="14.00">1682</text>
</g>
<!-- 2272&#45;&#45;1682 -->
<g id="edge16" class="edge"><title>2272:sw&#45;&#45;1682</title>
<path fill="none" stroke="black" d="M507,-594C494.467,-581.467 481.602,-566.024 472.349,-554.375"/>
</g>
<!-- 2478 -->
<g id="node53" class="node"><title>2478</title>
<ellipse fill="none" stroke="black" cx="585" cy="-537" rx="36.977" ry="18.3848"/>
<text text-anchor="middle" x="585" y="-533.4" font-family="Times Roman,serif" font-size="14.00">2478</text>
</g>
<!-- 2272&#45;&#45;2478 -->
<g id="edge52" class="edge"><title>2272:se&#45;&#45;2478</title>
<path fill="none" stroke="black" d="M541,-594C553.11,-581.89 564.86,-566.417 573.167,-554.649"/>
</g>
<!-- 352 -->
<g id="node19" class="node"><title>352</title>
<ellipse fill="none" stroke="black" cx="390" cy="-463" rx="31.1127" ry="18.3848"/>
<text text-anchor="middle" x="390" y="-459.4" font-family="Times Roman,serif" font-size="14.00">352</text>
</g>
<!-- 1682&#45;&#45;352 -->
<g id="edge18" class="edge"><title>1682:sw&#45;&#45;352</title>
<path fill="none" stroke="black" d="M442,-520C428.929,-506.929 414.84,-491.387 404.628,-479.836"/>
</g>
<!-- 1855 -->
<g id="node45" class="node"><title>1855</title>
<ellipse fill="none" stroke="black" cx="476" cy="-463" rx="36.977" ry="18.3848"/>
<text text-anchor="middle" x="476" y="-459.4" font-family="Times Roman,serif" font-size="14.00">1855</text>
</g>
<!-- 1682&#45;&#45;1855 -->
<g id="edge44" class="edge"><title>1682:se&#45;&#45;1855</title>
<path fill="none" stroke="black" d="M476,-520C485.796,-510.204 484.878,-494.075 482.034,-481.47"/>
</g>
<!-- 1535 -->
<g id="node21" class="node"><title>1535</title>
<ellipse fill="none" stroke="black" cx="367" cy="-389" rx="36.977" ry="18.3848"/>
<text text-anchor="middle" x="367" y="-385.4" font-family="Times Roman,serif" font-size="14.00">1535</text>
</g>
<!-- 352&#45;&#45;1535 -->
<g id="edge20" class="edge"><title>352:se&#45;&#45;1535</title>
<path fill="none" stroke="black" d="M406,-447C418.784,-434.216 403.475,-416.665 388.444,-404.227"/>
</g>
<!-- 1265 -->
<g id="node23" class="node"><title>1265</title>
<ellipse fill="none" stroke="black" cx="258" cy="-315" rx="36.977" ry="18.3848"/>
<text text-anchor="middle" x="258" y="-311.4" font-family="Times Roman,serif" font-size="14.00">1265</text>
</g>
<!-- 1535&#45;&#45;1265 -->
<g id="edge22" class="edge"><title>1535:sw&#45;&#45;1265</title>
<path fill="none" stroke="black" d="M350,-372C331.134,-353.134 304.891,-337.66 285.26,-327.619"/>
</g>
<!-- 1659 -->
<g id="node41" class="node"><title>1659</title>
<ellipse fill="none" stroke="black" cx="384" cy="-315" rx="36.977" ry="18.3848"/>
<text text-anchor="middle" x="384" y="-311.4" font-family="Times Roman,serif" font-size="14.00">1659</text>
</g>
<!-- 1535&#45;&#45;1659 -->
<g id="edge40" class="edge"><title>1535:se&#45;&#45;1659</title>
<path fill="none" stroke="black" d="M384,-372C393.796,-362.204 392.878,-346.075 390.034,-333.47"/>
</g>
<!-- 1138 -->
<g id="node25" class="node"><title>1138</title>
<ellipse fill="none" stroke="black" cx="166" cy="-241" rx="36.977" ry="18.3848"/>
<text text-anchor="middle" x="166" y="-237.4" font-family="Times Roman,serif" font-size="14.00">1138</text>
</g>
<!-- 1265&#45;&#45;1138 -->
<g id="edge24" class="edge"><title>1265:sw&#45;&#45;1138</title>
<path fill="none" stroke="black" d="M241,-298C224.926,-281.926 204.196,-266.502 188.605,-255.762"/>
</g>
<!-- 1473 -->
<g id="node37" class="node"><title>1473</title>
<ellipse fill="none" stroke="black" cx="275" cy="-241" rx="36.977" ry="18.3848"/>
<text text-anchor="middle" x="275" y="-237.4" font-family="Times Roman,serif" font-size="14.00">1473</text>
</g>
<!-- 1265&#45;&#45;1473 -->
<g id="edge36" class="edge"><title>1265:se&#45;&#45;1473</title>
<path fill="none" stroke="black" d="M275,-298C284.796,-288.204 283.878,-272.075 281.034,-259.47"/>
</g>
<!-- 1086 -->
<g id="node27" class="node"><title>1086</title>
<ellipse fill="none" stroke="black" cx="91" cy="-167" rx="36.977" ry="18.3848"/>
<text text-anchor="middle" x="91" y="-163.4" font-family="Times Roman,serif" font-size="14.00">1086</text>
</g>
<!-- 1138&#45;&#45;1086 -->
<g id="edge26" class="edge"><title>1138:sw&#45;&#45;1086</title>
<path fill="none" stroke="black" d="M149,-224C135.323,-210.323 119.674,-194.961 108.081,-183.633"/>
</g>
<!-- 1251 -->
<g id="node35" class="node"><title>1251</title>
<ellipse fill="none" stroke="black" cx="183" cy="-167" rx="36.977" ry="18.3848"/>
<text text-anchor="middle" x="183" y="-163.4" font-family="Times Roman,serif" font-size="14.00">1251</text>
</g>
<!-- 1138&#45;&#45;1251 -->
<g id="edge34" class="edge"><title>1138:se&#45;&#45;1251</title>
<path fill="none" stroke="black" d="M183,-224C192.796,-214.204 191.878,-198.075 189.034,-185.47"/>
</g>
<!-- 461 -->
<g id="node29" class="node"><title>461</title>
<ellipse fill="none" stroke="black" cx="74" cy="-93" rx="31.1127" ry="18.3848"/>
<text text-anchor="middle" x="74" y="-89.4" font-family="Times Roman,serif" font-size="14.00">461</text>
</g>
<!-- 1086&#45;&#45;461 -->
<g id="edge28" class="edge"><title>1086:sw&#45;&#45;461</title>
<path fill="none" stroke="black" d="M74,-150C64.1337,-140.134 65.1357,-123.844 68.027,-111.2"/>
</g>
<!-- 415 -->
<g id="node31" class="node"><title>415</title>
<ellipse fill="none" stroke="black" cx="31" cy="-19" rx="31.1127" ry="18.3848"/>
<text text-anchor="middle" x="31" y="-15.4" font-family="Times Roman,serif" font-size="14.00">415</text>
</g>
<!-- 461&#45;&#45;415 -->
<g id="edge30" class="edge"><title>461:sw&#45;&#45;415</title>
<path fill="none" stroke="black" d="M58,-77C47.0831,-66.0831 40.0613,-49.922 35.9232,-37.4301"/>
</g>
<!-- 1031 -->
<g id="node33" class="node"><title>1031</title>
<ellipse fill="none" stroke="black" cx="117" cy="-19" rx="36.977" ry="18.3848"/>
<text text-anchor="middle" x="117" y="-15.4" font-family="Times Roman,serif" font-size="14.00">1031</text>
</g>
<!-- 461&#45;&#45;1031 -->
<g id="edge32" class="edge"><title>461:se&#45;&#45;1031</title>
<path fill="none" stroke="black" d="M90,-77C100.917,-66.0831 107.939,-49.922 112.077,-37.4301"/>
</g>
<!-- 1471 -->
<g id="node39" class="node"><title>1471</title>
<ellipse fill="none" stroke="black" cx="275" cy="-167" rx="36.977" ry="18.3848"/>
<text text-anchor="middle" x="275" y="-163.4" font-family="Times Roman,serif" font-size="14.00">1471</text>
</g>
<!-- 1473&#45;&#45;1471 -->
<g id="edge38" class="edge"><title>1473:sw&#45;&#45;1471</title>
<path fill="none" stroke="black" d="M258,-224C247.558,-213.558 254.086,-196.996 261.884,-184.41"/>
</g>
<!-- 1635 -->
<g id="node43" class="node"><title>1635</title>
<ellipse fill="none" stroke="black" cx="367" cy="-241" rx="36.977" ry="18.3848"/>
<text text-anchor="middle" x="367" y="-237.4" font-family="Times Roman,serif" font-size="14.00">1635</text>
</g>
<!-- 1659&#45;&#45;1635 -->
<g id="edge42" class="edge"><title>1659:sw&#45;&#45;1635</title>
<path fill="none" stroke="black" d="M367,-298C357.204,-288.204 358.122,-272.075 360.966,-259.47"/>
</g>
<!-- 2243 -->
<g id="node47" class="node"><title>2243</title>
<ellipse fill="none" stroke="black" cx="493" cy="-389" rx="36.977" ry="18.3848"/>
<text text-anchor="middle" x="493" y="-385.4" font-family="Times Roman,serif" font-size="14.00">2243</text>
</g>
<!-- 1855&#45;&#45;2243 -->
<g id="edge46" class="edge"><title>1855:se&#45;&#45;2243</title>
<path fill="none" stroke="black" d="M493,-446C502.796,-436.204 501.878,-420.075 499.034,-407.47"/>
</g>
<!-- 2132 -->
<g id="node49" class="node"><title>2132</title>
<ellipse fill="none" stroke="black" cx="476" cy="-315" rx="36.977" ry="18.3848"/>
<text text-anchor="middle" x="476" y="-311.4" font-family="Times Roman,serif" font-size="14.00">2132</text>
</g>
<!-- 2243&#45;&#45;2132 -->
<g id="edge48" class="edge"><title>2243:sw&#45;&#45;2132</title>
<path fill="none" stroke="black" d="M476,-372C466.204,-362.204 467.122,-346.075 469.966,-333.47"/>
</g>
<!-- 1981 -->
<g id="node51" class="node"><title>1981</title>
<ellipse fill="none" stroke="black" cx="459" cy="-241" rx="36.977" ry="18.3848"/>
<text text-anchor="middle" x="459" y="-237.4" font-family="Times Roman,serif" font-size="14.00">1981</text>
</g>
<!-- 2132&#45;&#45;1981 -->
<g id="edge50" class="edge"><title>2132:sw&#45;&#45;1981</title>
<path fill="none" stroke="black" d="M459,-298C449.204,-288.204 450.122,-272.075 452.966,-259.47"/>
</g>
<!-- 2331 -->
<g id="node55" class="node"><title>2331</title>
<ellipse fill="none" stroke="black" cx="568" cy="-463" rx="36.977" ry="18.3848"/>
<text text-anchor="middle" x="568" y="-459.4" font-family="Times Roman,serif" font-size="14.00">2331</text>
</g>
<!-- 2478&#45;&#45;2331 -->
<g id="edge54" class="edge"><title>2478:sw&#45;&#45;2331</title>
<path fill="none" stroke="black" d="M568,-520C558.204,-510.204 559.122,-494.075 561.966,-481.47"/>
</g>
<!-- 2524 -->
<g id="node61" class="node"><title>2524</title>
<ellipse fill="none" stroke="black" cx="660" cy="-463" rx="36.977" ry="18.3848"/>
<text text-anchor="middle" x="660" y="-459.4" font-family="Times Roman,serif" font-size="14.00">2524</text>
</g>
<!-- 2478&#45;&#45;2524 -->
<g id="edge60" class="edge"><title>2478:se&#45;&#45;2524</title>
<path fill="none" stroke="black" d="M602,-520C615.677,-506.323 631.326,-490.961 642.919,-479.633"/>
</g>
<!-- 2452 -->
<g id="node57" class="node"><title>2452</title>
<ellipse fill="none" stroke="black" cx="585" cy="-389" rx="36.977" ry="18.3848"/>
<text text-anchor="middle" x="585" y="-385.4" font-family="Times Roman,serif" font-size="14.00">2452</text>
</g>
<!-- 2331&#45;&#45;2452 -->
<g id="edge56" class="edge"><title>2331:se&#45;&#45;2452</title>
<path fill="none" stroke="black" d="M585,-446C594.796,-436.204 593.878,-420.075 591.034,-407.47"/>
</g>
<!-- 2342 -->
<g id="node59" class="node"><title>2342</title>
<ellipse fill="none" stroke="black" cx="568" cy="-315" rx="36.977" ry="18.3848"/>
<text text-anchor="middle" x="568" y="-311.4" font-family="Times Roman,serif" font-size="14.00">2342</text>
</g>
<!-- 2452&#45;&#45;2342 -->
<g id="edge58" class="edge"><title>2452:sw&#45;&#45;2342</title>
<path fill="none" stroke="black" d="M568,-372C558.204,-362.204 559.122,-346.075 561.966,-333.47"/>
</g>
<!-- 2619 -->
<g id="node65" class="node"><title>2619</title>
<ellipse fill="none" stroke="black" cx="920" cy="-685" rx="36.977" ry="18.3848"/>
<text text-anchor="middle" x="920" y="-681.4" font-family="Times Roman,serif" font-size="14.00">2619</text>
</g>
<!-- 2728&#45;&#45;2619 -->
<g id="edge64" class="edge"><title>2728:sw&#45;&#45;2619</title>
<path fill="none" stroke="black" d="M958,-742C946.479,-730.479 936.406,-714.964 929.531,-703.03"/>
</g>
<!-- 5017 -->
<g id="node69" class="node"><title>5017</title>
<ellipse fill="none" stroke="black" cx="1029" cy="-685" rx="36.977" ry="18.3848"/>
<text text-anchor="middle" x="1029" y="-681.4" font-family="Times Roman,serif" font-size="14.00">5017</text>
</g>
<!-- 2728&#45;&#45;5017 -->
<g id="edge68" class="edge"><title>2728:se&#45;&#45;5017</title>
<path fill="none" stroke="black" d="M992,-742C1003.43,-730.571 1013.22,-715.05 1019.86,-703.09"/>
</g>
<!-- 2659 -->
<g id="node67" class="node"><title>2659</title>
<ellipse fill="none" stroke="black" cx="920" cy="-611" rx="36.977" ry="18.3848"/>
<text text-anchor="middle" x="920" y="-607.4" font-family="Times Roman,serif" font-size="14.00">2659</text>
</g>
<!-- 2619&#45;&#45;2659 -->
<g id="edge66" class="edge"><title>2619:se&#45;&#45;2659</title>
<path fill="none" stroke="black" d="M937,-668C947.442,-657.558 940.914,-640.996 933.116,-628.41"/>
</g>
<!-- 4639 -->
<g id="node71" class="node"><title>4639</title>
<ellipse fill="none" stroke="black" cx="1012" cy="-611" rx="36.977" ry="18.3848"/>
<text text-anchor="middle" x="1012" y="-607.4" font-family="Times Roman,serif" font-size="14.00">4639</text>
</g>
<!-- 5017&#45;&#45;4639 -->
<g id="edge70" class="edge"><title>5017:sw&#45;&#45;4639</title>
<path fill="none" stroke="black" d="M1012,-668C1002.2,-658.204 1003.12,-642.075 1005.97,-629.47"/>
</g>
<!-- 6966 -->
<g id="node117" class="node"><title>6966</title>
<ellipse fill="none" stroke="black" cx="1230" cy="-611" rx="36.977" ry="18.3848"/>
<text text-anchor="middle" x="1230" y="-607.4" font-family="Times Roman,serif" font-size="14.00">6966</text>
</g>
<!-- 5017&#45;&#45;6966 -->
<g id="edge116" class="edge"><title>5017:se&#45;&#45;6966</title>
<path fill="none" stroke="black" d="M1046,-668C1067.11,-646.895 1148.24,-627.509 1195.42,-617.706"/>
</g>
<!-- 3759 -->
<g id="node73" class="node"><title>3759</title>
<ellipse fill="none" stroke="black" cx="874" cy="-537" rx="36.977" ry="18.3848"/>
<text text-anchor="middle" x="874" y="-533.4" font-family="Times Roman,serif" font-size="14.00">3759</text>
</g>
<!-- 4639&#45;&#45;3759 -->
<g id="edge72" class="edge"><title>4639:sw&#45;&#45;3759</title>
<path fill="none" stroke="black" d="M995,-594C970.535,-569.535 933.558,-554.239 906.923,-545.727"/>
</g>
<!-- 4913 -->
<g id="node111" class="node"><title>4913</title>
<ellipse fill="none" stroke="black" cx="1029" cy="-537" rx="36.977" ry="18.3848"/>
<text text-anchor="middle" x="1029" y="-533.4" font-family="Times Roman,serif" font-size="14.00">4913</text>
</g>
<!-- 4639&#45;&#45;4913 -->
<g id="edge110" class="edge"><title>4639:se&#45;&#45;4913</title>
<path fill="none" stroke="black" d="M1029,-594C1038.8,-584.204 1037.88,-568.075 1035.03,-555.47"/>
</g>
<!-- 3562 -->
<g id="node75" class="node"><title>3562</title>
<ellipse fill="none" stroke="black" cx="775" cy="-463" rx="36.977" ry="18.3848"/>
<text text-anchor="middle" x="775" y="-459.4" font-family="Times Roman,serif" font-size="14.00">3562</text>
</g>
<!-- 3759&#45;&#45;3562 -->
<g id="edge74" class="edge"><title>3759:sw&#45;&#45;3562</title>
<path fill="none" stroke="black" d="M857,-520C839.837,-502.837 816.922,-487.399 799.679,-476.932"/>
</g>
<!-- 4078 -->
<g id="node97" class="node"><title>4078</title>
<ellipse fill="none" stroke="black" cx="891" cy="-463" rx="36.977" ry="18.3848"/>
<text text-anchor="middle" x="891" y="-459.4" font-family="Times Roman,serif" font-size="14.00">4078</text>
</g>
<!-- 3759&#45;&#45;4078 -->
<g id="edge96" class="edge"><title>3759:se&#45;&#45;4078</title>
<path fill="none" stroke="black" d="M891,-520C900.796,-510.204 899.878,-494.075 897.034,-481.47"/>
</g>
<!-- 3114 -->
<g id="node77" class="node"><title>3114</title>
<ellipse fill="none" stroke="black" cx="735" cy="-389" rx="36.977" ry="18.3848"/>
<text text-anchor="middle" x="735" y="-385.4" font-family="Times Roman,serif" font-size="14.00">3114</text>
</g>
<!-- 3562&#45;&#45;3114 -->
<g id="edge76" class="edge"><title>3562:sw&#45;&#45;3114</title>
<path fill="none" stroke="black" d="M758,-446C747.587,-435.587 741.717,-419.837 738.518,-407.53"/>
</g>
<!-- 3061 -->
<g id="node79" class="node"><title>3061</title>
<ellipse fill="none" stroke="black" cx="660" cy="-315" rx="36.977" ry="18.3848"/>
<text text-anchor="middle" x="660" y="-311.4" font-family="Times Roman,serif" font-size="14.00">3061</text>
</g>
<!-- 3114&#45;&#45;3061 -->
<g id="edge78" class="edge"><title>3114:sw&#45;&#45;3061</title>
<path fill="none" stroke="black" d="M718,-372C704.323,-358.323 688.674,-342.961 677.081,-331.633"/>
</g>
<!-- 3557 -->
<g id="node89" class="node"><title>3557</title>
<ellipse fill="none" stroke="black" cx="752" cy="-315" rx="36.977" ry="18.3848"/>
<text text-anchor="middle" x="752" y="-311.4" font-family="Times Roman,serif" font-size="14.00">3557</text>
</g>
<!-- 3114&#45;&#45;3557 -->
<g id="edge88" class="edge"><title>3114:se&#45;&#45;3557</title>
<path fill="none" stroke="black" d="M752,-372C761.796,-362.204 760.878,-346.075 758.034,-333.47"/>
</g>
<!-- 2813 -->
<g id="node81" class="node"><title>2813</title>
<ellipse fill="none" stroke="black" cx="582" cy="-241" rx="36.977" ry="18.3848"/>
<text text-anchor="middle" x="582" y="-237.4" font-family="Times Roman,serif" font-size="14.00">2813</text>
</g>
<!-- 3061&#45;&#45;2813 -->
<g id="edge80" class="edge"><title>3061:sw&#45;&#45;2813</title>
<path fill="none" stroke="black" d="M643,-298C628.959,-283.959 612.476,-268.622 600.187,-257.397"/>
</g>
<!-- 3080 -->
<g id="node85" class="node"><title>3080</title>
<ellipse fill="none" stroke="black" cx="674" cy="-241" rx="36.977" ry="18.3848"/>
<text text-anchor="middle" x="674" y="-237.4" font-family="Times Roman,serif" font-size="14.00">3080</text>
</g>
<!-- 3061&#45;&#45;3080 -->
<g id="edge84" class="edge"><title>3061:se&#45;&#45;3080</title>
<path fill="none" stroke="black" d="M677,-298C686.88,-288.12 684.966,-271.832 681.254,-259.192"/>
</g>
<!-- 2739 -->
<g id="node83" class="node"><title>2739</title>
<ellipse fill="none" stroke="black" cx="565" cy="-167" rx="36.977" ry="18.3848"/>
<text text-anchor="middle" x="565" y="-163.4" font-family="Times Roman,serif" font-size="14.00">2739</text>
</g>
<!-- 2813&#45;&#45;2739 -->
<g id="edge82" class="edge"><title>2813:sw&#45;&#45;2739</title>
<path fill="none" stroke="black" d="M565,-224C555.204,-214.204 556.122,-198.075 558.966,-185.47"/>
</g>
<!-- 3075 -->
<g id="node87" class="node"><title>3075</title>
<ellipse fill="none" stroke="black" cx="657" cy="-167" rx="36.977" ry="18.3848"/>
<text text-anchor="middle" x="657" y="-163.4" font-family="Times Roman,serif" font-size="14.00">3075</text>
</g>
<!-- 3080&#45;&#45;3075 -->
<g id="edge86" class="edge"><title>3080:sw&#45;&#45;3075</title>
<path fill="none" stroke="black" d="M657,-224C647.204,-214.204 648.122,-198.075 650.966,-185.47"/>
</g>
<!-- 3209 -->
<g id="node91" class="node"><title>3209</title>
<ellipse fill="none" stroke="black" cx="766" cy="-241" rx="36.977" ry="18.3848"/>
<text text-anchor="middle" x="766" y="-237.4" font-family="Times Roman,serif" font-size="14.00">3209</text>
</g>
<!-- 3557&#45;&#45;3209 -->
<g id="edge90" class="edge"><title>3557:sw&#45;&#45;3209</title>
<path fill="none" stroke="black" d="M735,-298C723.371,-286.371 735.089,-269.466 747.307,-257.086"/>
</g>
<!-- 3127 -->
<g id="node93" class="node"><title>3127</title>
<ellipse fill="none" stroke="black" cx="749" cy="-167" rx="36.977" ry="18.3848"/>
<text text-anchor="middle" x="749" y="-163.4" font-family="Times Roman,serif" font-size="14.00">3127</text>
</g>
<!-- 3209&#45;&#45;3127 -->
<g id="edge92" class="edge"><title>3209:sw&#45;&#45;3127</title>
<path fill="none" stroke="black" d="M749,-224C739.204,-214.204 740.122,-198.075 742.966,-185.47"/>
</g>
<!-- 3265 -->
<g id="node95" class="node"><title>3265</title>
<ellipse fill="none" stroke="black" cx="841" cy="-167" rx="36.977" ry="18.3848"/>
<text text-anchor="middle" x="841" y="-163.4" font-family="Times Roman,serif" font-size="14.00">3265</text>
</g>
<!-- 3209&#45;&#45;3265 -->
<g id="edge94" class="edge"><title>3209:se&#45;&#45;3265</title>
<path fill="none" stroke="black" d="M783,-224C796.677,-210.323 812.326,-194.961 823.919,-183.633"/>
</g>
<!-- 3893 -->
<g id="node99" class="node"><title>3893</title>
<ellipse fill="none" stroke="black" cx="862" cy="-389" rx="36.977" ry="18.3848"/>
<text text-anchor="middle" x="862" y="-385.4" font-family="Times Roman,serif" font-size="14.00">3893</text>
</g>
<!-- 4078&#45;&#45;3893 -->
<g id="edge98" class="edge"><title>4078:sw&#45;&#45;3893</title>
<path fill="none" stroke="black" d="M874,-446C864.06,-436.06 861.377,-420.11 861,-407.607"/>
</g>
<!-- 4454 -->
<g id="node109" class="node"><title>4454</title>
<ellipse fill="none" stroke="black" cx="954" cy="-389" rx="36.977" ry="18.3848"/>
<text text-anchor="middle" x="954" y="-385.4" font-family="Times Roman,serif" font-size="14.00">4454</text>
</g>
<!-- 4078&#45;&#45;4454 -->
<g id="edge108" class="edge"><title>4078:se&#45;&#45;4454</title>
<path fill="none" stroke="black" d="M908,-446C920.319,-433.681 932.627,-418.223 941.407,-406.514"/>
</g>
<!-- 3852 -->
<g id="node101" class="node"><title>3852</title>
<ellipse fill="none" stroke="black" cx="844" cy="-315" rx="36.977" ry="18.3848"/>
<text text-anchor="middle" x="844" y="-311.4" font-family="Times Roman,serif" font-size="14.00">3852</text>
</g>
<!-- 3893&#45;&#45;3852 -->
<g id="edge100" class="edge"><title>3893:sw&#45;&#45;3852</title>
<path fill="none" stroke="black" d="M845,-372C835.202,-362.202 835.822,-346.074 838.395,-333.469"/>
</g>
<!-- 3927 -->
<g id="node103" class="node"><title>3927</title>
<ellipse fill="none" stroke="black" cx="936" cy="-315" rx="36.977" ry="18.3848"/>
<text text-anchor="middle" x="936" y="-311.4" font-family="Times Roman,serif" font-size="14.00">3927</text>
</g>
<!-- 3893&#45;&#45;3927 -->
<g id="edge102" class="edge"><title>3893:se&#45;&#45;3927</title>
<path fill="none" stroke="black" d="M879,-372C892.458,-358.542 907.704,-343.296 919.04,-331.96"/>
</g>
<!-- 3951 -->
<g id="node105" class="node"><title>3951</title>
<ellipse fill="none" stroke="black" cx="915" cy="-241" rx="36.977" ry="18.3848"/>
<text text-anchor="middle" x="915" y="-237.4" font-family="Times Roman,serif" font-size="14.00">3951</text>
</g>
<!-- 3927&#45;&#45;3951 -->
<g id="edge104" class="edge"><title>3927:se&#45;&#45;3951</title>
<path fill="none" stroke="black" d="M953,-298C965.447,-285.553 950.801,-268.447 936.229,-256.229"/>
</g>
<!-- 4000 -->
<g id="node107" class="node"><title>4000</title>
<ellipse fill="none" stroke="black" cx="933" cy="-167" rx="36.977" ry="18.3848"/>
<text text-anchor="middle" x="933" y="-163.4" font-family="Times Roman,serif" font-size="14.00">4000</text>
</g>
<!-- 3951&#45;&#45;4000 -->
<g id="edge106" class="edge"><title>3951:se&#45;&#45;4000</title>
<path fill="none" stroke="black" d="M932,-224C941.798,-214.202 941.178,-198.074 938.605,-185.469"/>
</g>
<!-- 4886 -->
<g id="node113" class="node"><title>4886</title>
<ellipse fill="none" stroke="black" cx="983" cy="-463" rx="36.977" ry="18.3848"/>
<text text-anchor="middle" x="983" y="-459.4" font-family="Times Roman,serif" font-size="14.00">4886</text>
</g>
<!-- 4913&#45;&#45;4886 -->
<g id="edge112" class="edge"><title>4913:sw&#45;&#45;4886</title>
<path fill="none" stroke="black" d="M1012,-520C1001.24,-509.244 993.695,-493.676 989.001,-481.527"/>
</g>
<!-- 4936 -->
<g id="node115" class="node"><title>4936</title>
<ellipse fill="none" stroke="black" cx="1075" cy="-463" rx="36.977" ry="18.3848"/>
<text text-anchor="middle" x="1075" y="-459.4" font-family="Times Roman,serif" font-size="14.00">4936</text>
</g>
<!-- 4913&#45;&#45;4936 -->
<g id="edge114" class="edge"><title>4913:se&#45;&#45;4936</title>
<path fill="none" stroke="black" d="M1046,-520C1056.76,-509.244 1064.3,-493.676 1069,-481.527"/>
</g>
<!-- 5988 -->
<g id="node119" class="node"><title>5988</title>
<ellipse fill="none" stroke="black" cx="1213" cy="-537" rx="36.977" ry="18.3848"/>
<text text-anchor="middle" x="1213" y="-533.4" font-family="Times Roman,serif" font-size="14.00">5988</text>
</g>
<!-- 6966&#45;&#45;5988 -->
<g id="edge118" class="edge"><title>6966:sw&#45;&#45;5988</title>
<path fill="none" stroke="black" d="M1213,-594C1203.2,-584.204 1204.12,-568.075 1206.97,-555.47"/>
</g>
<!-- 7310 -->
<g id="node151" class="node"><title>7310</title>
<ellipse fill="none" stroke="black" cx="1477" cy="-537" rx="36.977" ry="18.3848"/>
<text text-anchor="middle" x="1477" y="-533.4" font-family="Times Roman,serif" font-size="14.00">7310</text>
</g>
<!-- 6966&#45;&#45;7310 -->
<g id="edge150" class="edge"><title>6966:se&#45;&#45;7310</title>
<path fill="none" stroke="black" d="M1247,-594C1274.05,-566.947 1383.21,-549.115 1440.88,-541.387"/>
</g>
<!-- 5074 -->
<g id="node121" class="node"><title>5074</title>
<ellipse fill="none" stroke="black" cx="1167" cy="-463" rx="36.977" ry="18.3848"/>
<text text-anchor="middle" x="1167" y="-459.4" font-family="Times Roman,serif" font-size="14.00">5074</text>
</g>
<!-- 5988&#45;&#45;5074 -->
<g id="edge120" class="edge"><title>5988:sw&#45;&#45;5074</title>
<path fill="none" stroke="black" d="M1196,-520C1185.24,-509.244 1177.7,-493.676 1173,-481.527"/>
</g>
<!-- 6548 -->
<g id="node135" class="node"><title>6548</title>
<ellipse fill="none" stroke="black" cx="1259" cy="-463" rx="36.977" ry="18.3848"/>
<text text-anchor="middle" x="1259" y="-459.4" font-family="Times Roman,serif" font-size="14.00">6548</text>
</g>
<!-- 5988&#45;&#45;6548 -->
<g id="edge134" class="edge"><title>5988:se&#45;&#45;6548</title>
<path fill="none" stroke="black" d="M1230,-520C1240.76,-509.244 1248.3,-493.676 1253,-481.527"/>
</g>
<!-- 5515 -->
<g id="node123" class="node"><title>5515</title>
<ellipse fill="none" stroke="black" cx="1150" cy="-389" rx="36.977" ry="18.3848"/>
<text text-anchor="middle" x="1150" y="-385.4" font-family="Times Roman,serif" font-size="14.00">5515</text>
</g>
<!-- 5074&#45;&#45;5515 -->
<g id="edge122" class="edge"><title>5074:se&#45;&#45;5515</title>
<path fill="none" stroke="black" d="M1184,-446C1195.98,-434.023 1182.99,-417.006 1169.76,-404.687"/>
</g>
<!-- 5266 -->
<g id="node125" class="node"><title>5266</title>
<ellipse fill="none" stroke="black" cx="1076" cy="-315" rx="36.977" ry="18.3848"/>
<text text-anchor="middle" x="1076" y="-311.4" font-family="Times Roman,serif" font-size="14.00">5266</text>
</g>
<!-- 5515&#45;&#45;5266 -->
<g id="edge124" class="edge"><title>5515:sw&#45;&#45;5266</title>
<path fill="none" stroke="black" d="M1133,-372C1119.54,-358.542 1104.3,-343.296 1092.96,-331.96"/>
</g>
<!-- 5910 -->
<g id="node131" class="node"><title>5910</title>
<ellipse fill="none" stroke="black" cx="1168" cy="-315" rx="36.977" ry="18.3848"/>
<text text-anchor="middle" x="1168" y="-311.4" font-family="Times Roman,serif" font-size="14.00">5910</text>
</g>
<!-- 5515&#45;&#45;5910 -->
<g id="edge130" class="edge"><title>5515:se&#45;&#45;5910</title>
<path fill="none" stroke="black" d="M1167,-372C1176.8,-362.202 1176.18,-346.074 1173.61,-333.469"/>
</g>
<!-- 5118 -->
<g id="node127" class="node"><title>5118</title>
<ellipse fill="none" stroke="black" cx="1007" cy="-241" rx="36.977" ry="18.3848"/>
<text text-anchor="middle" x="1007" y="-237.4" font-family="Times Roman,serif" font-size="14.00">5118</text>
</g>
<!-- 5266&#45;&#45;5118 -->
<g id="edge126" class="edge"><title>5266:sw&#45;&#45;5118</title>
<path fill="none" stroke="black" d="M1059,-298C1046.12,-285.118 1032.25,-269.837 1022.07,-258.34"/>
</g>
<!-- 5351 -->
<g id="node129" class="node"><title>5351</title>
<ellipse fill="none" stroke="black" cx="1099" cy="-241" rx="36.977" ry="18.3848"/>
<text text-anchor="middle" x="1099" y="-237.4" font-family="Times Roman,serif" font-size="14.00">5351</text>
</g>
<!-- 5266&#45;&#45;5351 -->
<g id="edge128" class="edge"><title>5266:se&#45;&#45;5351</title>
<path fill="none" stroke="black" d="M1093,-298C1102.85,-288.15 1103.72,-272.026 1102.49,-259.436"/>
</g>
<!-- 5619 -->
<g id="node133" class="node"><title>5619</title>
<ellipse fill="none" stroke="black" cx="1191" cy="-241" rx="36.977" ry="18.3848"/>
<text text-anchor="middle" x="1191" y="-237.4" font-family="Times Roman,serif" font-size="14.00">5619</text>
</g>
<!-- 5910&#45;&#45;5619 -->
<g id="edge132" class="edge"><title>5910:sw&#45;&#45;5619</title>
<path fill="none" stroke="black" d="M1151,-298C1138.35,-285.348 1153.69,-268.274 1168.89,-256.119"/>
</g>
<!-- 6004 -->
<g id="node137" class="node"><title>6004</title>
<ellipse fill="none" stroke="black" cx="1242" cy="-389" rx="36.977" ry="18.3848"/>
<text text-anchor="middle" x="1242" y="-385.4" font-family="Times Roman,serif" font-size="14.00">6004</text>
</g>
<!-- 6548&#45;&#45;6004 -->
<g id="edge136" class="edge"><title>6548:sw&#45;&#45;6004</title>
<path fill="none" stroke="black" d="M1242,-446C1232.2,-436.204 1233.12,-420.075 1235.97,-407.47"/>
</g>
<!-- 6615 -->
<g id="node147" class="node"><title>6615</title>
<ellipse fill="none" stroke="black" cx="1334" cy="-389" rx="36.977" ry="18.3848"/>
<text text-anchor="middle" x="1334" y="-385.4" font-family="Times Roman,serif" font-size="14.00">6615</text>
</g>
<!-- 6548&#45;&#45;6615 -->
<g id="edge146" class="edge"><title>6548:se&#45;&#45;6615</title>
<path fill="none" stroke="black" d="M1276,-446C1289.68,-432.323 1305.33,-416.961 1316.92,-405.633"/>
</g>
<!-- 6544 -->
<g id="node139" class="node"><title>6544</title>
<ellipse fill="none" stroke="black" cx="1260" cy="-315" rx="36.977" ry="18.3848"/>
<text text-anchor="middle" x="1260" y="-311.4" font-family="Times Roman,serif" font-size="14.00">6544</text>
</g>
<!-- 6004&#45;&#45;6544 -->
<g id="edge138" class="edge"><title>6004:se&#45;&#45;6544</title>
<path fill="none" stroke="black" d="M1259,-372C1268.8,-362.202 1268.18,-346.074 1265.61,-333.469"/>
</g>
<!-- 6128 -->
<g id="node141" class="node"><title>6128</title>
<ellipse fill="none" stroke="black" cx="1283" cy="-241" rx="36.977" ry="18.3848"/>
<text text-anchor="middle" x="1283" y="-237.4" font-family="Times Roman,serif" font-size="14.00">6128</text>
</g>
<!-- 6544&#45;&#45;6128 -->
<g id="edge140" class="edge"><title>6544:sw&#45;&#45;6128</title>
<path fill="none" stroke="black" d="M1243,-298C1230.35,-285.348 1245.69,-268.274 1260.89,-256.119"/>
</g>
<!-- 6056 -->
<g id="node143" class="node"><title>6056</title>
<ellipse fill="none" stroke="black" cx="1237" cy="-167" rx="36.977" ry="18.3848"/>
<text text-anchor="middle" x="1237" y="-163.4" font-family="Times Roman,serif" font-size="14.00">6056</text>
</g>
<!-- 6128&#45;&#45;6056 -->
<g id="edge142" class="edge"><title>6128:sw&#45;&#45;6056</title>
<path fill="none" stroke="black" d="M1266,-224C1255.24,-213.244 1247.7,-197.676 1243,-185.527"/>
</g>
<!-- 6386 -->
<g id="node145" class="node"><title>6386</title>
<ellipse fill="none" stroke="black" cx="1329" cy="-167" rx="36.977" ry="18.3848"/>
<text text-anchor="middle" x="1329" y="-163.4" font-family="Times Roman,serif" font-size="14.00">6386</text>
</g>
<!-- 6128&#45;&#45;6386 -->
<g id="edge144" class="edge"><title>6128:se&#45;&#45;6386</title>
<path fill="none" stroke="black" d="M1300,-224C1310.76,-213.244 1318.3,-197.676 1323,-185.527"/>
</g>
<!-- 6792 -->
<g id="node149" class="node"><title>6792</title>
<ellipse fill="none" stroke="black" cx="1352" cy="-315" rx="36.977" ry="18.3848"/>
<text text-anchor="middle" x="1352" y="-311.4" font-family="Times Roman,serif" font-size="14.00">6792</text>
</g>
<!-- 6615&#45;&#45;6792 -->
<g id="edge148" class="edge"><title>6615:se&#45;&#45;6792</title>
<path fill="none" stroke="black" d="M1351,-372C1360.8,-362.202 1360.18,-346.074 1357.61,-333.469"/>
</g>
<!-- 7057 -->
<g id="node153" class="node"><title>7057</title>
<ellipse fill="none" stroke="black" cx="1460" cy="-463" rx="36.977" ry="18.3848"/>
<text text-anchor="middle" x="1460" y="-459.4" font-family="Times Roman,serif" font-size="14.00">7057</text>
</g>
<!-- 7310&#45;&#45;7057 -->
<g id="edge152" class="edge"><title>7310:sw&#45;&#45;7057</title>
<path fill="none" stroke="black" d="M1460,-520C1450.2,-510.204 1451.12,-494.075 1453.97,-481.47"/>
</g>
<!-- 7773 -->
<g id="node161" class="node"><title>7773</title>
<ellipse fill="none" stroke="black" cx="1627" cy="-463" rx="36.977" ry="18.3848"/>
<text text-anchor="middle" x="1627" y="-459.4" font-family="Times Roman,serif" font-size="14.00">7773</text>
</g>
<!-- 7310&#45;&#45;7773 -->
<g id="edge160" class="edge"><title>7310:se&#45;&#45;7773</title>
<path fill="none" stroke="black" d="M1494,-520C1521.09,-492.911 1563.1,-477.869 1592.64,-470.134"/>
</g>
<!-- 7055 -->
<g id="node155" class="node"><title>7055</title>
<ellipse fill="none" stroke="black" cx="1426" cy="-389" rx="36.977" ry="18.3848"/>
<text text-anchor="middle" x="1426" y="-385.4" font-family="Times Roman,serif" font-size="14.00">7055</text>
</g>
<!-- 7057&#45;&#45;7055 -->
<g id="edge154" class="edge"><title>7057:sw&#45;&#45;7055</title>
<path fill="none" stroke="black" d="M1443,-446C1432.92,-435.923 1428.77,-420.147 1427.08,-407.744"/>
</g>
<!-- 7165 -->
<g id="node157" class="node"><title>7165</title>
<ellipse fill="none" stroke="black" cx="1518" cy="-389" rx="36.977" ry="18.3848"/>
<text text-anchor="middle" x="1518" y="-385.4" font-family="Times Roman,serif" font-size="14.00">7165</text>
</g>
<!-- 7057&#45;&#45;7165 -->
<g id="edge156" class="edge"><title>7057:se&#45;&#45;7165</title>
<path fill="none" stroke="black" d="M1477,-446C1488.81,-434.191 1499.72,-418.697 1507.31,-406.844"/>
</g>
<!-- 7238 -->
<g id="node159" class="node"><title>7238</title>
<ellipse fill="none" stroke="black" cx="1535" cy="-315" rx="36.977" ry="18.3848"/>
<text text-anchor="middle" x="1535" y="-311.4" font-family="Times Roman,serif" font-size="14.00">7238</text>
</g>
<!-- 7165&#45;&#45;7238 -->
<g id="edge158" class="edge"><title>7165:se&#45;&#45;7238</title>
<path fill="none" stroke="black" d="M1535,-372C1544.8,-362.204 1543.88,-346.075 1541.03,-333.47"/>
</g>
<!-- 7376 -->
<g id="node163" class="node"><title>7376</title>
<ellipse fill="none" stroke="black" cx="1610" cy="-389" rx="36.977" ry="18.3848"/>
<text text-anchor="middle" x="1610" y="-385.4" font-family="Times Roman,serif" font-size="14.00">7376</text>
</g>
<!-- 7773&#45;&#45;7376 -->
<g id="edge162" class="edge"><title>7773:sw&#45;&#45;7376</title>
<path fill="none" stroke="black" d="M1610,-446C1600.2,-436.204 1601.12,-420.075 1603.97,-407.47"/>
</g>
<!-- 8435 -->
<g id="node165" class="node"><title>8435</title>
<ellipse fill="none" stroke="black" cx="1702" cy="-389" rx="36.977" ry="18.3848"/>
<text text-anchor="middle" x="1702" y="-385.4" font-family="Times Roman,serif" font-size="14.00">8435</text>
</g>
<!-- 7773&#45;&#45;8435 -->
<g id="edge164" class="edge"><title>7773:se&#45;&#45;8435</title>
<path fill="none" stroke="black" d="M1644,-446C1657.68,-432.323 1673.33,-416.961 1684.92,-405.633"/>
</g>
<!-- 8855 -->
<g id="node169" class="node"><title>8855</title>
<ellipse fill="none" stroke="black" cx="1409" cy="-759" rx="36.977" ry="18.3848"/>
<text text-anchor="middle" x="1409" y="-755.4" font-family="Times Roman,serif" font-size="14.00">8855</text>
</g>
<!-- 8919&#45;&#45;8855 -->
<g id="edge168" class="edge"><title>8919:sw&#45;&#45;8855</title>
<path fill="none" stroke="black" d="M1409,-816C1399.2,-806.204 1400.12,-790.075 1402.97,-777.47"/>
</g>
<!-- 9268 -->
<g id="node177" class="node"><title>9268</title>
<ellipse fill="none" stroke="black" cx="1611" cy="-759" rx="36.977" ry="18.3848"/>
<text text-anchor="middle" x="1611" y="-755.4" font-family="Times Roman,serif" font-size="14.00">9268</text>
</g>
<!-- 8919&#45;&#45;9268 -->
<g id="edge176" class="edge"><title>8919:se&#45;&#45;9268</title>
<path fill="none" stroke="black" d="M1443,-816C1478.39,-780.61 1536.54,-767.182 1574.3,-762.094"/>
</g>
<!-- 8697 -->
<g id="node171" class="node"><title>8697</title>
<ellipse fill="none" stroke="black" cx="1363" cy="-685" rx="36.977" ry="18.3848"/>
<text text-anchor="middle" x="1363" y="-681.4" font-family="Times Roman,serif" font-size="14.00">8697</text>
</g>
<!-- 8855&#45;&#45;8697 -->
<g id="edge170" class="edge"><title>8855:sw&#45;&#45;8697</title>
<path fill="none" stroke="black" d="M1392,-742C1381.24,-731.244 1373.7,-715.676 1369,-703.527"/>
</g>
<!-- 8905 -->
<g id="node175" class="node"><title>8905</title>
<ellipse fill="none" stroke="black" cx="1455" cy="-685" rx="36.977" ry="18.3848"/>
<text text-anchor="middle" x="1455" y="-681.4" font-family="Times Roman,serif" font-size="14.00">8905</text>
</g>
<!-- 8855&#45;&#45;8905 -->
<g id="edge174" class="edge"><title>8855:se&#45;&#45;8905</title>
<path fill="none" stroke="black" d="M1426,-742C1436.76,-731.244 1444.3,-715.676 1449,-703.527"/>
</g>
<!-- 8703 -->
<g id="node173" class="node"><title>8703</title>
<ellipse fill="none" stroke="black" cx="1380" cy="-611" rx="36.977" ry="18.3848"/>
<text text-anchor="middle" x="1380" y="-607.4" font-family="Times Roman,serif" font-size="14.00">8703</text>
</g>
<!-- 8697&#45;&#45;8703 -->
<g id="edge172" class="edge"><title>8697:se&#45;&#45;8703</title>
<path fill="none" stroke="black" d="M1380,-668C1389.8,-658.204 1388.88,-642.075 1386.03,-629.47"/>
</g>
<!-- 9016 -->
<g id="node179" class="node"><title>9016</title>
<ellipse fill="none" stroke="black" cx="1594" cy="-685" rx="36.977" ry="18.3848"/>
<text text-anchor="middle" x="1594" y="-681.4" font-family="Times Roman,serif" font-size="14.00">9016</text>
</g>
<!-- 9268&#45;&#45;9016 -->
<g id="edge178" class="edge"><title>9268:sw&#45;&#45;9016</title>
<path fill="none" stroke="black" d="M1594,-742C1584.2,-732.204 1585.12,-716.075 1587.97,-703.47"/>
</g>
<!-- 9286 -->
<g id="node187" class="node"><title>9286</title>
<ellipse fill="none" stroke="black" cx="1719" cy="-685" rx="36.977" ry="18.3848"/>
<text text-anchor="middle" x="1719" y="-681.4" font-family="Times Roman,serif" font-size="14.00">9286</text>
</g>
<!-- 9268&#45;&#45;9286 -->
<g id="edge186" class="edge"><title>9268:se&#45;&#45;9286</title>
<path fill="none" stroke="black" d="M1628,-742C1646.72,-723.282 1672.67,-707.791 1692.07,-697.707"/>
</g>
<!-- 8939 -->
<g id="node181" class="node"><title>8939</title>
<ellipse fill="none" stroke="black" cx="1560" cy="-611" rx="36.977" ry="18.3848"/>
<text text-anchor="middle" x="1560" y="-607.4" font-family="Times Roman,serif" font-size="14.00">8939</text>
</g>
<!-- 9016&#45;&#45;8939 -->
<g id="edge180" class="edge"><title>9016:sw&#45;&#45;8939</title>
<path fill="none" stroke="black" d="M1577,-668C1566.92,-657.923 1562.77,-642.147 1561.08,-629.744"/>
</g>
<!-- 9263 -->
<g id="node185" class="node"><title>9263</title>
<ellipse fill="none" stroke="black" cx="1652" cy="-611" rx="36.977" ry="18.3848"/>
<text text-anchor="middle" x="1652" y="-607.4" font-family="Times Roman,serif" font-size="14.00">9263</text>
</g>
<!-- 9016&#45;&#45;9263 -->
<g id="edge184" class="edge"><title>9016:se&#45;&#45;9263</title>
<path fill="none" stroke="black" d="M1611,-668C1622.81,-656.191 1633.72,-640.697 1641.31,-628.844"/>
</g>
<!-- 8981 -->
<g id="node183" class="node"><title>8981</title>
<ellipse fill="none" stroke="black" cx="1577" cy="-537" rx="36.977" ry="18.3848"/>
<text text-anchor="middle" x="1577" y="-533.4" font-family="Times Roman,serif" font-size="14.00">8981</text>
</g>
<!-- 8939&#45;&#45;8981 -->
<g id="edge182" class="edge"><title>8939:se&#45;&#45;8981</title>
<path fill="none" stroke="black" d="M1577,-594C1586.8,-584.204 1585.88,-568.075 1583.03,-555.47"/>
</g>
<!-- 9577 -->
<g id="node189" class="node"><title>9577</title>
<ellipse fill="none" stroke="black" cx="1753" cy="-611" rx="36.977" ry="18.3848"/>
<text text-anchor="middle" x="1753" y="-607.4" font-family="Times Roman,serif" font-size="14.00">9577</text>
</g>
<!-- 9286&#45;&#45;9577 -->
<g id="edge188" class="edge"><title>9286:se&#45;&#45;9577</title>
<path fill="none" stroke="black" d="M1736,-668C1746.08,-657.923 1750.23,-642.147 1751.92,-629.744"/>
</g>
<!-- 9521 -->
<g id="node191" class="node"><title>9521</title>
<ellipse fill="none" stroke="black" cx="1736" cy="-537" rx="36.977" ry="18.3848"/>
<text text-anchor="middle" x="1736" y="-533.4" font-family="Times Roman,serif" font-size="14.00">9521</text>
</g>
<!-- 9577&#45;&#45;9521 -->
<g id="edge190" class="edge"><title>9577:sw&#45;&#45;9521</title>
<path fill="none" stroke="black" d="M1736,-594C1726.2,-584.204 1727.12,-568.075 1729.97,-555.47"/>
</g>
<!-- 9821 -->
<g id="node195" class="node"><title>9821</title>
<ellipse fill="none" stroke="black" cx="1828" cy="-537" rx="36.977" ry="18.3848"/>
<text text-anchor="middle" x="1828" y="-533.4" font-family="Times Roman,serif" font-size="14.00">9821</text>
</g>
<!-- 9577&#45;&#45;9821 -->
<g id="edge194" class="edge"><title>9577:se&#45;&#45;9821</title>
<path fill="none" stroke="black" d="M1770,-594C1783.68,-580.323 1799.33,-564.961 1810.92,-553.633"/>
</g>
<!-- 9341 -->
<g id="node193" class="node"><title>9341</title>
<ellipse fill="none" stroke="black" cx="1719" cy="-463" rx="36.977" ry="18.3848"/>
<text text-anchor="middle" x="1719" y="-459.4" font-family="Times Roman,serif" font-size="14.00">9341</text>
</g>
<!-- 9521&#45;&#45;9341 -->
<g id="edge192" class="edge"><title>9521:sw&#45;&#45;9341</title>
<path fill="none" stroke="black" d="M1719,-520C1709.2,-510.204 1710.12,-494.075 1712.97,-481.47"/>
</g>
<!-- 9628 -->
<g id="node197" class="node"><title>9628</title>
<ellipse fill="none" stroke="black" cx="1811" cy="-463" rx="36.977" ry="18.3848"/>
<text text-anchor="middle" x="1811" y="-459.4" font-family="Times Roman,serif" font-size="14.00">9628</text>
</g>
<!-- 9821&#45;&#45;9628 -->
<g id="edge196" class="edge"><title>9821:sw&#45;&#45;9628</title>
<path fill="none" stroke="black" d="M1811,-520C1801.2,-510.204 1802.12,-494.075 1804.97,-481.47"/>
</g>
<!-- 9610 -->
<g id="node199" class="node"><title>9610</title>
<ellipse fill="none" stroke="black" cx="1794" cy="-389" rx="36.977" ry="18.3848"/>
<text text-anchor="middle" x="1794" y="-385.4" font-family="Times Roman,serif" font-size="14.00">9610</text>
</g>
<!-- 9628&#45;&#45;9610 -->
<g id="edge198" class="edge"><title>9628:sw&#45;&#45;9610</title>
<path fill="none" stroke="black" d="M1794,-446C1784.2,-436.204 1785.12,-420.075 1787.97,-407.47"/>
</g>
</g>
</svg>
